<?xml version="1.0" encoding="UTF-8"?>
<svg version="1.1" xmlns="http://www.w3.org/2000/svg" width="1080" height="1080">
<path d="M0 0 C1.23797978 -0.00260775 2.47595956 -0.00521549 3.75145388 -0.00790226 C5.14306178 -0.00573974 6.53466954 -0.00348306 7.92627716 -0.0011425 C9.39073205 -0.00229335 10.85518665 -0.00388062 12.31964064 -0.00586975 C16.36301714 -0.01006814 20.40637023 -0.0079701 24.44974685 -0.00488353 C28.80289228 -0.00263171 33.15603354 -0.00610795 37.50917816 -0.00886345 C46.04455787 -0.01332249 54.57992882 -0.01234409 63.11530888 -0.00945081 C70.04891668 -0.0071973 76.98252201 -0.00688402 83.91613007 -0.00797462 C84.90095909 -0.00812786 85.88578812 -0.00828109 86.90046045 -0.00843897 C88.90078819 -0.00875868 90.90111592 -0.00908289 92.90144366 -0.00941156 C111.68200366 -0.01226674 130.46255879 -0.00897873 149.24311799 -0.00361119 C165.37631704 0.00085688 181.5095089 0.00008096 197.64270782 -0.00452995 C216.35362698 -0.00987504 235.06454186 -0.01199205 253.77546167 -0.00891769 C255.76865037 -0.00859912 257.76183907 -0.00828475 259.75502777 -0.00797462 C261.22626294 -0.00774321 261.22626294 -0.00774321 262.72722003 -0.00750712 C269.65676823 -0.00664177 276.58631373 -0.00810524 283.51586151 -0.01045418 C291.95453334 -0.01325165 300.39319586 -0.01251504 308.83186662 -0.00717343 C313.14176978 -0.0045357 317.45165738 -0.00353256 321.76156044 -0.00682259 C325.70051734 -0.00978409 329.63944415 -0.00819521 333.57839829 -0.00284503 C335.00973578 -0.00172022 336.44107576 -0.00231344 337.87241167 -0.00472082 C339.80532536 -0.00772452 341.7382461 -0.00407159 343.67115784 0 C344.74864178 0.00016235 345.82612573 0.0003247 346.9362607 0.00049198 C349.33557892 0.12584114 349.33557892 0.12584114 350.33557892 1.12584114 C350.44652536 3.56884473 350.4929632 5.98384845 350.49671173 8.42784309 C350.50167664 9.19209602 350.50664154 9.95634895 350.5117569 10.74376106 C350.52641739 13.28389052 350.53318755 15.82395749 350.53870392 18.36412239 C350.54445294 20.1243102 350.5502107 21.88449799 350.55597687 23.64468575 C350.56649845 27.34112529 350.57233327 31.03754301 350.57581329 34.73399544 C350.58129519 39.47217794 350.60531172 44.21007266 350.63378525 48.94816494 C350.65240524 52.58641591 350.65761692 56.22459755 350.65914917 59.86289215 C350.66217856 61.6096135 350.67021672 63.35633355 350.68333435 65.10300827 C350.70037894 67.54744662 350.69851851 69.99118201 350.69202423 72.43565559 C350.70123901 73.15841179 350.7104538 73.88116798 350.71994781 74.62582588 C350.69386496 77.75798496 350.48938271 79.85278785 348.93830109 82.60647774 C347.33557892 84.12584114 347.33557892 84.12584114 345.33557892 84.12584114 C345.33557892 84.78584114 345.33557892 85.44584114 345.33557892 86.12584114 C344.67557892 86.12584114 344.01557892 86.12584114 343.33557892 86.12584114 C342.97786407 86.97662239 342.97786407 86.97662239 342.61292267 87.84459114 C341.06589369 90.60748081 339.18139677 92.43625555 336.89807892 94.62584114 C334.62358759 96.81414911 332.53369121 98.85361155 330.67542267 101.40709114 C330.01220001 102.25787239 330.01220001 102.25787239 329.33557892 103.12584114 C328.67557892 103.12584114 328.01557892 103.12584114 327.33557892 103.12584114 C327.02620392 103.92828255 327.02620392 103.92828255 326.71057892 104.74693489 C324.76944427 108.10531841 322.11824774 110.51396014 319.33557892 113.18834114 C315.0074123 117.3670598 315.0074123 117.3670598 311.33557892 122.12584114 C310.67557892 122.12584114 310.01557892 122.12584114 309.33557892 122.12584114 C309.08807892 122.68271614 308.84057892 123.23959114 308.58557892 123.81334114 C305.98021871 128.63325753 302.5904744 131.76671313 298.33557892 135.12584114 C297.67557892 136.11584114 297.01557892 137.10584114 296.33557892 138.12584114 C295.67557892 138.12584114 295.01557892 138.12584114 294.33557892 138.12584114 C294.0010672 138.95341927 294.0010672 138.95341927 293.65979767 139.79771614 C291.92003795 142.85640874 289.6779341 144.93322234 287.14807892 147.37584114 C283.24745238 151.18512108 279.55036549 155.08417001 276.01136017 159.23130989 C274.19580514 161.28386045 272.28798356 163.2033012 270.33557892 165.12584114 C267.79743093 167.62523878 265.39429589 170.16365907 263.08557892 172.87584114 C259.99993594 176.47103984 256.70338456 179.798961 253.33557892 183.12584114 C248.23195346 188.17352134 243.37164729 193.34293242 238.87464142 198.94615364 C237.7301801 200.36846106 236.53773316 201.75195058 235.33557892 203.12584114 C234.67557892 203.12584114 234.01557892 203.12584114 233.33557892 203.12584114 C233.10870392 203.68271614 232.88182892 204.23959114 232.64807892 204.81334114 C230.95414656 207.79788863 228.81943193 209.75238159 226.33557892 212.12584114 C222.26496484 216.09183663 218.40315185 220.12800524 214.75745392 224.48912239 C213.39222965 226.06063055 211.96312135 227.49910808 210.46057892 228.93834114 C208.10331702 230.8566479 208.10331702 230.8566479 208.33557892 233.12584114 C209.15010529 233.24588509 209.96463165 233.36592903 210.80384064 233.48961067 C226.48206612 235.84057043 241.47722484 238.40369183 256.33557892 244.12584114 C257.31397736 244.45197395 258.29237579 244.77810677 259.30042267 245.11412239 C266.22607656 247.42267369 272.59063248 250.66363516 279.07386017 253.97740364 C283.38498845 256.17234109 287.75941517 258.21660443 292.14807892 260.25084114 C318.60372811 272.60018572 318.60372811 272.60018572 327.33557892 282.12584114 C328.09870392 282.68271614 328.86182892 283.23959114 329.64807892 283.81334114 C330.20495392 284.24646614 330.76182892 284.67959114 331.33557892 285.12584114 C331.33557892 285.78584114 331.33557892 286.44584114 331.33557892 287.12584114 C332.06776642 287.35787239 332.79995392 287.58990364 333.55432892 287.82896614 C336.84820414 289.36487425 338.47232133 291.1298024 340.83557892 293.87584114 C341.61159454 294.77173958 342.38761017 295.66763802 343.18714142 296.59068489 C343.89612579 297.42728645 344.60511017 298.26388802 345.33557892 299.12584114 C345.85893829 299.7252552 346.38229767 300.32466927 346.92151642 300.94224739 C348.74712265 303.06105705 350.35103616 305.15205125 351.77307892 307.56334114 C353.32753523 310.31774648 353.32753523 310.31774648 356.02307892 312.93834114 C364.27489062 322.39823446 368.50199825 335.60927802 372.65198517 347.27672005 C373.68004473 350.05762117 374.87146448 352.76918428 376.02307892 355.50084114 C386.45545884 382.91927554 384.23781739 415.95360336 380.46057892 444.43834114 C380.29928497 445.66085579 380.13799103 446.88337044 379.97180939 448.14293098 C378.74557259 456.75037589 376.66517723 464.24730805 373.12464142 472.16880989 C372.18786596 474.49219852 371.49889182 476.85294524 370.77307892 479.25084114 C368.7822449 485.30757078 366.22153809 491.04024637 363.52307892 496.81334114 C363.12081085 497.69199837 362.71854279 498.57065559 362.30408478 499.4759388 C359.71628645 504.90873332 356.73298684 509.51334025 352.89807892 514.15342903 C351.43505755 516.00026491 350.27935269 517.81408364 349.14807892 519.87584114 C347.43992963 522.93872952 345.69285444 525.53283806 343.33557892 528.12584114 C342.67557892 528.12584114 342.01557892 528.12584114 341.33557892 528.12584114 C341.14995392 528.82709114 340.96432892 529.52834114 340.77307892 530.25084114 C339.08179996 533.63339906 337.15235787 535.13037186 334.24964142 537.46568489 C332.27396016 539.17928598 330.68695905 540.9860479 329.02307892 543.00084114 C322.65961381 550.46047362 314.51063116 555.8403722 306.33557892 561.12584114 C304.91815889 562.08305986 303.50150587 563.04141523 302.08557892 564.00084114 C285.43121173 575.0551409 285.43121173 575.0551409 278.48401642 577.30943489 C275.68184501 578.37426003 273.15889559 579.82229359 270.52307892 581.25084114 C253.63350304 589.91617142 235.17832102 594.50445387 216.64807892 598.06334114 C215.90193329 598.20691048 215.15578766 598.35047981 214.38703156 598.49839973 C192.9267111 602.57334632 171.55458293 604.3575859 149.71057892 604.37584114 C148.44032867 604.37735176 148.44032867 604.37735176 147.14441681 604.3788929 C124.45523935 604.36080963 102.27193185 601.92214236 79.98938751 597.63316536 C77.37489523 597.13335718 74.75661753 596.66077023 72.13636017 596.19224739 C61.21308661 594.1867658 50.80668268 591.28806596 40.2813797 587.76158333 C37.92376088 586.9912898 35.542014 586.33578268 33.14807892 585.68834114 C20.33475818 581.86877239 8.17272461 575.2485027 -3.66442108 569.12584114 C-4.70985077 568.58830208 -5.75528046 568.05076302 -6.83238983 567.49693489 C-12.53524583 564.48425372 -17.63688236 561.15554775 -22.66442108 557.12584114 C-23.52551483 556.46068489 -24.38660858 555.79552864 -25.27379608 555.11021614 C-32.88900078 549.16771536 -32.88900078 549.16771536 -35.66442108 545.12584114 C-35.10754608 544.15646614 -34.55067108 543.18709114 -33.97692108 542.18834114 C-28.53588917 532.6536262 -23.49252856 522.98289251 -18.66442108 513.12584114 C-14.73425965 505.15145027 -10.64775804 497.27123327 -6.48619843 489.4158802 C-3.71497248 484.16941484 -1.03507154 478.88637775 1.58557892 473.56334114 C4.19553485 468.27049638 6.97691694 463.1458262 10.10901642 458.14146614 C11.30201308 456.18100029 12.33961014 454.19224366 13.33557892 452.12584114 C17.24817375 452.70414615 19.32576967 454.57298381 22.27307892 457.12584114 C44.77252051 475.90513697 72.81647319 488.64195296 102.05725861 491.83897591 C103.84367884 492.06390559 105.6248026 492.33096357 107.40296173 492.61387825 C116.01216794 493.96759921 124.374999 494.47788911 133.08557892 494.43834114 C134.08171204 494.43460991 134.08171204 494.43460991 135.09796906 494.4308033 C162.57287403 494.27345587 193.26465868 491.35999211 215.33557892 473.12584114 C216.09870392 472.69271614 216.86182892 472.25959114 217.64807892 471.81334114 C232.50327075 462.48566255 241.62642008 445.6227776 246.33557892 429.06334114 C250.31023492 408.59644368 247.46789713 387.33023953 237.33557892 369.12584114 C234.62664305 365.14647367 231.6351603 361.6247261 228.33557892 358.12584114 C227.56729767 357.29052864 226.79901642 356.45521614 226.00745392 355.59459114 C221.73265611 351.11623153 217.83723777 347.92668565 212.33557892 345.12584114 C211.16581369 344.33876013 209.99937231 343.54672565 208.83557892 342.75084114 C180.3940482 324.85752861 139.14198301 324.95697928 107.37464142 332.02037239 C93.30316862 335.70505977 79.27874027 340.45202357 66.33557892 347.12584114 C62.64981051 341.59718853 59.631344 335.8393147 56.70081329 329.88755989 C53.83630751 324.08469365 50.85318184 318.35040375 47.83557892 312.62584114 C44.44023584 306.16735277 41.06087728 299.7023686 37.77307892 293.18834114 C37.45081329 292.55670052 37.12854767 291.92505989 36.79651642 291.27427864 C34.97500529 287.6391417 33.31174943 284.08130663 32.33557892 280.12584114 C34.08557892 277.25084114 34.08557892 277.25084114 36.33557892 275.12584114 C36.99557892 275.12584114 37.65557892 275.12584114 38.33557892 275.12584114 C38.58952423 274.37947395 38.84346954 273.63310677 39.10511017 272.86412239 C40.41256964 269.95450624 41.70767114 268.47408514 44.02307892 266.31334114 C49.49264803 261.04087362 54.33981878 255.41553295 59.02307892 249.43834114 C62.74135449 244.74005495 66.74736596 240.38406158 70.83997345 236.01597786 C74.77896582 231.78915991 78.43505841 227.38747016 82.05042267 222.87974739 C85.02755968 219.29191561 88.1885196 215.89715324 91.37073517 212.49180794 C94.85275369 208.73590195 97.99077511 204.81647524 100.99573517 200.67271614 C101.43788361 200.16224739 101.88003204 199.65177864 102.33557892 199.12584114 C102.99557892 199.12584114 103.65557892 199.12584114 104.33557892 199.12584114 C104.57921173 198.38978645 104.82284454 197.65373177 105.07386017 196.89537239 C106.48810506 193.79103918 108.04862894 192.14298682 110.52307892 189.81334114 C115.64097042 184.86001207 120.5001631 179.87896487 124.46057892 173.93834114 C126.4802666 170.90880961 128.74519135 168.68263579 131.33557892 166.12584114 C137.51535547 159.59025927 143.38424066 152.91536155 149.02307892 145.90709114 C151.53529641 142.88564038 154.15968509 140.00152517 156.83557892 137.12584114 C161.92181136 131.65667869 166.66245567 125.95305555 171.33557892 120.12584114 C174.47932668 116.24141982 177.78202455 112.6440953 181.33557892 109.12584114 C180.37275277 109.1216092 179.40992662 109.11737726 178.41792393 109.11301708 C155.02594524 109.00997475 131.63399831 108.9012461 108.24207401 108.78650188 C96.93007265 108.73114584 85.61806814 108.67766 74.3060379 108.62852669 C64.45028207 108.58571395 54.59454968 108.53944343 44.73883003 108.48896259 C39.51687631 108.46233813 34.29492732 108.43748456 29.07294655 108.41676712 C24.16385503 108.39723651 19.25480824 108.37310367 14.34575653 108.34535027 C12.53850806 108.33596081 10.73124976 108.32829241 8.92398643 108.32242203 C6.46763356 108.31419287 4.0113902 108.29992553 1.5550766 108.28405952 C0.83038211 108.28308142 0.10568762 108.28210331 -0.64096731 108.28109556 C-5.55029987 108.23996235 -5.55029987 108.23996235 -6.66442108 107.12584114 C-6.76196673 105.74941215 -6.79073727 104.36802679 -6.79140472 102.98814583 C-6.79422455 102.09631599 -6.79704437 101.20448616 -6.79994965 100.28563118 C-6.79792542 99.29961922 -6.79590118 98.31360725 -6.79381561 97.29771614 C-6.79556793 96.26529793 -6.79732025 95.23287971 -6.79912567 94.1691761 C-6.80354641 90.73804762 -6.80060541 87.3069702 -6.79723358 83.87584114 C-6.79790656 81.50311969 -6.79887653 79.1303983 -6.80013275 76.75767708 C-6.80161003 71.77752719 -6.79945422 66.7973952 -6.79479218 61.81724739 C-6.78909488 55.41755435 -6.79237372 49.01790324 -6.79836464 42.61821175 C-6.80196945 37.71649545 -6.80083203 32.81478918 -6.79823685 27.91307259 C-6.79756736 25.55263959 -6.79839676 23.19220571 -6.8007164 20.83177376 C-6.80324162 17.53914652 -6.79940417 14.24658822 -6.79381561 10.95396614 C-6.79583984 9.96795418 -6.79786407 8.98194221 -6.79994965 7.9660511 C-6.79571991 6.62830635 -6.79571991 6.62830635 -6.79140472 5.26353645 C-6.7910277 4.48407661 -6.79065067 3.70461678 -6.79026222 2.90153694 C-6.50836884 -1.07615185 -3.27465934 0.00049342 0 0 Z " fill="#037CDB" transform="translate(57.66442108154297,237.87415885925293)"/>
<path d="M0 0 C0.61359375 0.55171875 1.2271875 1.1034375 1.859375 1.671875 C3.12325039 2.80612214 4.40597668 3.91958495 5.703125 5.015625 C9.79246592 8.48063906 13.40565892 12.08883652 16.86328125 16.18359375 C18.09669972 17.62302216 19.36663567 19.03182121 20.66796875 20.41015625 C35.48777805 36.14776794 47.40192749 54.93543236 56.73779297 74.36181641 C57.65624498 76.24830268 58.60379075 78.11618829 59.56640625 79.98046875 C63.15419919 86.9623293 66.29089095 93.94481858 68.96142578 101.32568359 C69.79846524 103.61614328 70.66306196 105.89546439 71.52734375 108.17578125 C76.60376349 121.69560863 80.91791527 135.37201275 84.6875 149.3125 C84.9438623 150.26044434 85.20022461 151.20838867 85.46435547 152.18505859 C87.48853095 159.95278362 88.92218759 167.76360756 90.1875 175.6875 C90.29388794 176.35080322 90.40027588 177.01410645 90.5098877 177.69750977 C94.0734792 200.08468593 96.22242441 222.64394049 96.6875 245.3125 C96.70941406 246.28977051 96.73132812 247.26704102 96.75390625 248.27392578 C97.27462729 275.31236601 95.79060403 302.57450391 91.6875 329.3125 C91.42646484 331.02663086 91.42646484 331.02663086 91.16015625 332.77539062 C87.42278623 356.83632104 81.63660718 379.70338335 73.60742188 402.6796875 C73.04496973 404.28942314 72.48768443 405.90099077 71.93945312 407.515625 C63.40970208 432.63512373 50.39633887 456.95615536 34.6875 478.3125 C34.29739746 478.84536621 33.90729492 479.37823242 33.50537109 479.92724609 C27.40457565 488.21479464 20.79445005 495.87499414 13.6875 503.3125 C12.82125 504.22 11.955 505.1275 11.0625 506.0625 C6.54481132 510.69602685 6.54481132 510.69602685 4.6875 512.3125 C4.0275 512.3125 3.3675 512.3125 2.6875 512.3125 C2.43025146 512.9108667 2.17300293 513.5092334 1.90795898 514.12573242 C0.57052919 516.52208343 -0.66522551 517.65144383 -2.83984375 519.30078125 C-3.54439697 519.83896484 -4.2489502 520.37714844 -4.97485352 520.93164062 C-6.10105103 521.76985352 -6.10105103 521.76985352 -7.25 522.625 C-8.01691162 523.20314453 -8.78382324 523.78128906 -9.57397461 524.37695312 C-15.30916617 528.66102858 -21.18262893 532.61423691 -27.3125 536.3125 C-28.18491333 536.87505493 -28.18491333 536.87505493 -29.07495117 537.44897461 C-34.05357649 540.64498455 -39.15004988 543.35416122 -44.5 545.875 C-45.33370117 546.26848633 -46.16740234 546.66197266 -47.02636719 547.06738281 C-52.63066486 549.65880314 -58.1998614 551.77193524 -64.16015625 553.41796875 C-67.67199955 554.41451412 -71.06422403 555.64248354 -74.5 556.875 C-111.1038693 569.3767599 -158.09054803 567.3732072 -194.40527344 554.95214844 C-196.25145113 554.33297466 -198.11397653 553.76322251 -199.9765625 553.1953125 C-213.70262995 548.93347143 -227.83326805 543.10290285 -239.3125 534.3125 C-236.12619313 529.99167478 -232.87285822 525.73970717 -229.5 521.5625 C-221.22825985 511.23068768 -213.813109 500.82534562 -207.3125 489.3125 C-206.87115723 488.54292969 -206.42981445 487.77335938 -205.97509766 486.98046875 C-198.18488306 473.28410828 -192.83007544 459.38452998 -188.3125 444.3125 C-187.87550781 442.86302979 -187.87550781 442.86302979 -187.4296875 441.38427734 C-186.72083853 439.0279342 -186.01504681 436.67072832 -185.3125 434.3125 C-181.24079163 435.16045631 -178.95127675 436.96181246 -175.6875 439.5625 C-160.03662941 451.63480344 -141.83572134 455.75478503 -122.3125 454.3125 C-105.30338697 452.08593595 -90.50628695 443.81408476 -78.62890625 431.5390625 C-76.3125 429.3125 -76.3125 429.3125 -74.3125 429.3125 C-74.3125 428.6525 -74.3125 427.9925 -74.3125 427.3125 C-73.15101539 426.15101539 -71.98602213 424.99285189 -70.8046875 423.8515625 C-65.50517854 418.38557682 -61.91301587 411.95480812 -58.3125 405.3125 C-57.89210449 404.53825684 -57.47170898 403.76401367 -57.03857422 402.96630859 C-55.76587939 400.60765969 -54.506485 398.24231872 -53.25 395.875 C-52.82912109 395.09318359 -52.40824219 394.31136719 -51.97460938 393.50585938 C-47.41673216 384.90595772 -44.05187117 376.11617304 -41.4375 366.75 C-41.06069092 365.40760254 -41.06069092 365.40760254 -40.67626953 364.03808594 C-35.31352956 344.66022999 -30.93019588 325.25934257 -28.3125 305.3125 C-28.19390625 304.4359375 -28.0753125 303.559375 -27.953125 302.65625 C-21.44731263 251.84895337 -26.01193772 197.54412805 -41.52490234 148.79541016 C-42.22371041 146.59241013 -42.89286991 144.38342914 -43.55078125 142.16796875 C-48.45321922 126.34876169 -55.96146614 111.9171349 -65.3125 98.3125 C-65.91964844 97.37664062 -66.52679687 96.44078125 -67.15234375 95.4765625 C-70.93124554 89.76964959 -75.00965449 85.59452516 -80.3125 81.3125 C-81.71048828 80.08660156 -81.71048828 80.08660156 -83.13671875 78.8359375 C-98.20025851 65.65747679 -117.21142597 58.99886631 -137.3125 60.3125 C-161.89434689 63.14187836 -181.18433732 75.93819323 -196.65771484 94.96679688 C-201.5103054 101.29152164 -205.45107945 108.04732513 -208.85546875 115.25 C-209.84866457 117.33757512 -210.895753 119.40015127 -211.98828125 121.4375 C-224.99096671 145.88600836 -230.28464069 174.17479793 -234.3125 201.3125 C-234.49039063 202.50311035 -234.49039063 202.50311035 -234.671875 203.71777344 C-235.2447079 207.5792809 -235.79477964 211.44322149 -236.3125 215.3125 C-237.65147583 214.36206626 -238.98355427 213.40190853 -240.3125 212.4375 C-241.055 211.90382813 -241.7975 211.37015625 -242.5625 210.8203125 C-243.14 210.32273437 -243.7175 209.82515625 -244.3125 209.3125 C-244.3125 208.6525 -244.3125 207.9925 -244.3125 207.3125 C-245.16328125 206.96445312 -245.16328125 206.96445312 -246.03125 206.609375 C-248.87877038 204.99057917 -250.60458371 202.98547307 -252.8125 200.5625 C-260.57928078 192.45465209 -270.00830108 186.49725342 -279.3125 180.3125 C-279.99441406 179.84956543 -280.67632813 179.38663086 -281.37890625 178.90966797 C-301.39507158 165.35149028 -324.32533068 155.58962995 -347.3125 148.3125 C-346.73306164 142.63909802 -345.6672258 137.44681355 -344 132 C-343.77707275 131.2565332 -343.55414551 130.51306641 -343.32446289 129.74707031 C-341.82610178 124.81494269 -340.16693661 119.96687372 -338.32983398 115.1496582 C-337.27656622 112.21228727 -336.41187258 109.25679382 -335.55078125 106.2578125 C-333.48108308 99.48581737 -330.70152437 93.2728393 -327.5625 86.9375 C-327.03100342 85.85041748 -326.49950684 84.76333496 -325.9519043 83.64331055 C-324.41966642 80.52569493 -322.87126239 77.41692594 -321.3125 74.3125 C-320.91949707 73.5292334 -320.52649414 72.7459668 -320.12158203 71.93896484 C-314.89732037 61.62340514 -309.19480414 51.005623 -301.6875 42.15234375 C-299.83359608 39.93558693 -298.36153086 37.95885344 -297 35.4375 C-296.443125 34.40625 -295.88625 33.375 -295.3125 32.3125 C-294.6525 32.3125 -293.9925 32.3125 -293.3125 32.3125 C-293.07660156 31.75820313 -292.84070313 31.20390625 -292.59765625 30.6328125 C-290.9998545 27.74802758 -288.99398991 25.60077968 -286.75 23.1875 C-283.67530814 19.99742491 -283.67530814 19.99742491 -281.3125 16.3125 C-280.6525 16.3125 -279.9925 16.3125 -279.3125 16.3125 C-279.085625 15.755625 -278.85875 15.19875 -278.625 14.625 C-276.93699964 11.65090412 -274.84573483 9.59241135 -272.3125 7.3125 C-271.6525 7.3125 -270.9925 7.3125 -270.3125 7.3125 C-269.9825 6.3225 -269.6525 5.3325 -269.3125 4.3125 C-267.16015625 2.33203125 -267.16015625 2.33203125 -264.375 0.125 C-263.37726563 -0.6690625 -262.37953125 -1.463125 -261.3515625 -2.28125 C-260.34867188 -3.0753125 -259.34578125 -3.869375 -258.3125 -4.6875 C-257.45398438 -5.3990625 -256.59546875 -6.110625 -255.7109375 -6.84375 C-250.92609709 -10.79314209 -246.09153689 -14.18189498 -240.7109375 -17.26953125 C-238.49769655 -18.57801083 -236.45843668 -19.99712572 -234.375 -21.5 C-221.06013738 -30.4232939 -205.47231254 -35.82965952 -190.3125 -40.6875 C-189.53898193 -40.9467627 -188.76546387 -41.20602539 -187.96850586 -41.47314453 C-181.07878377 -43.69051033 -174.15588127 -44.80576375 -167 -45.8125 C-165.86626953 -45.98136719 -164.73253906 -46.15023437 -163.56445312 -46.32421875 C-104.34480016 -54.89504032 -45.33967136 -39.57239418 0 0 Z " fill="#037CDB" transform="translate(963.3125,281.6875)"/>
<path d="M0 0 C4.05665089 0.11337563 8.11359992 0.12316107 12.17159057 0.14445734 C19.83741731 0.20016602 27.49856288 0.34751311 35.16233772 0.52874815 C43.89457706 0.730718 52.6270534 0.82909755 61.36105096 0.91926599 C79.310088 1.10686538 97.25478203 1.42296901 115.20023131 1.82509089 C113.65457968 5.89975794 111.80834151 8.92568878 109.13773131 12.38759089 C108.32120933 13.45521071 107.50480629 14.52292152 106.68851256 15.59071589 C106.27295104 16.13018854 105.85738952 16.6696612 105.42923522 17.22548151 C103.54201356 19.68179385 101.68377161 22.15953716 99.82523131 24.63759089 C99.08015319 25.63016901 98.33507506 26.62274714 97.56741881 27.64540339 C95.4665629 30.46734516 93.38578676 33.3023089 91.31278014 36.14467096 C83.85891013 46.36319084 76.17155745 56.39795687 68.43460631 66.40321589 C63.95484101 72.19996292 59.56279063 78.04349118 55.28226256 83.98915339 C52.46630995 87.82476614 49.55223596 91.58186215 46.61234069 95.32313776 C44.74451238 97.72033448 43.05599225 100.07438463 41.53226256 102.70790339 C41.09269225 103.40657526 40.65312194 104.10524714 40.20023131 104.82509089 C39.54023131 104.82509089 38.88023131 104.82509089 38.20023131 104.82509089 C37.95530944 105.54438776 37.71038756 106.26368464 37.45804381 107.00477839 C36.04779881 110.16688055 34.32557707 112.32338068 32.07523131 114.95009089 C28.25003984 119.51465642 24.68926513 124.18616701 21.21976256 129.02430964 C19.1443903 131.90253385 17.02343719 134.74139232 14.88773131 137.57509089 C11.47348709 142.10981732 8.10830848 146.67704455 4.76273131 151.26259089 C1.36459659 155.91563843 -2.08212699 160.52062938 -5.61226869 165.07509089 C-10.44347342 171.30865489 -15.10344238 177.66066192 -19.76339173 184.02284479 C-23.29838213 188.8337556 -26.93190474 193.52399565 -30.72164369 198.13759089 C-34.26124175 202.71511621 -37.51337092 207.50517854 -40.76510072 212.29042292 C-41.25865052 213.00569147 -41.75220033 213.72096003 -42.26070619 214.45790339 C-42.70204896 215.10646296 -43.14339173 215.75502253 -43.59810853 216.42323542 C-44.19293031 217.11715387 -44.19293031 217.11715387 -44.79976869 217.82509089 C-45.45976869 217.82509089 -46.11976869 217.82509089 -46.79976869 217.82509089 C-47.00601869 218.50571589 -47.21226869 219.18634089 -47.42476869 219.88759089 C-48.70155888 222.61527902 -49.92274347 224.27469624 -51.88570619 226.50868464 C-52.43017396 227.13186579 -52.97464173 227.75504694 -53.53560853 228.39711237 C-53.95278138 228.86834528 -54.36995423 229.33957819 -54.79976869 229.82509089 C-53.81919496 229.86996637 -52.83862123 229.91484186 -51.82833314 229.96107721 C-4.36810145 232.17520323 42.743132 238.90220106 83.20023131 265.82509089 C84.17717956 266.4716363 84.17717956 266.4716363 85.17386413 267.13124323 C102.7611193 278.81648752 102.7611193 278.81648752 107.20023131 283.82509089 C107.20023131 284.48509089 107.20023131 285.14509089 107.20023131 285.82509089 C107.750661 286.05067682 108.30109069 286.27626276 108.86820006 286.50868464 C117.05966589 291.13267791 123.80163975 300.27382502 129.20023131 307.82509089 C129.60741393 308.38293268 130.01459655 308.94077448 130.43411803 309.51552057 C137.44915122 319.16024392 143.25941718 328.97357726 148.20023131 339.82509089 C148.65913756 340.81637995 149.11804381 341.80766901 149.59085631 342.82899714 C160.03805002 366.59966889 164.42527891 391.73614793 164.45023131 417.57509089 C164.45123839 418.30163874 164.45224547 419.02818659 164.45328307 419.77675104 C164.44157554 432.32447169 163.59076092 444.48210026 161.20023131 456.82509089 C161.05569518 457.58660456 160.91115905 458.34811823 160.76224303 459.13270807 C158.66790916 469.8061571 155.26801214 479.75653677 151.20023131 489.82509089 C150.79933288 490.86149714 150.39843444 491.89790339 149.98538756 492.96571589 C145.18499405 505.05559585 139.03803599 516.43802045 131.20023131 526.82509089 C130.78918151 527.38067682 130.3781317 527.93626276 129.95462584 528.50868464 C128.60748684 530.3290105 127.24969101 532.14083289 125.88773131 533.95009089 C125.45476745 534.53161921 125.02180358 535.11314753 124.57571959 535.71229792 C123.49866639 537.12133993 122.35460943 538.47866815 121.20023131 539.82509089 C120.54023131 539.82509089 119.88023131 539.82509089 119.20023131 539.82509089 C119.20023131 540.48509089 119.20023131 541.14509089 119.20023131 541.82509089 C118.54023131 541.82509089 117.88023131 541.82509089 117.20023131 541.82509089 C116.98882506 542.36907526 116.77741881 542.91305964 116.55960631 543.47352839 C114.70424787 546.68308523 112.16484466 548.97918348 109.45023131 551.45009089 C108.87458434 551.97643122 108.29893737 552.50277155 107.70584655 553.04506159 C101.58499315 558.53389282 95.02708968 563.26139307 88.20023131 567.82509089 C87.29990172 568.43078913 87.29990172 568.43078913 86.38138366 569.0487237 C79.22366662 573.83840223 71.99382449 578.13681853 64.20023131 581.82509089 C63.07487975 582.41870417 63.07487975 582.41870417 61.92679381 583.02430964 C49.1729962 589.74017981 35.62709772 593.79819344 21.687536 597.2074151 C19.19719973 597.82584372 16.7186519 598.48056194 14.23929381 599.14149714 C-39.76406138 613.23750052 -100.2982966 607.73713571 -151.79976869 586.82509089 C-151.79976869 582.82509089 -151.79976869 582.82509089 -150.64156556 581.24452448 C-149.83815736 580.49163141 -149.83815736 580.49163141 -149.01851869 579.72352839 C-148.1328119 578.87323053 -148.1328119 578.87323053 -147.22921205 578.00575495 C-146.59249574 577.40988581 -145.95577943 576.81401667 -145.29976869 576.20009089 C-139.63420348 570.70612387 -134.49899894 565.18338394 -129.79976869 558.82509089 C-129.09086488 557.89019831 -129.09086488 557.89019831 -128.36763978 556.93641901 C-112.46054486 535.93572649 -99.20947766 512.21309373 -91.79976869 486.82509089 C-88.20011464 487.39147002 -85.66864081 488.34896174 -82.54976869 490.20009089 C-65.64227808 498.80346 -39.65060704 498.50180876 -21.79976869 492.82509089 C-12.03158696 488.91436247 -2.71015602 483.77208483 4.70413756 476.22352839 C6.20023131 474.82509089 6.20023131 474.82509089 8.20023131 474.82509089 C8.40648131 474.16509089 8.61273131 473.50509089 8.82523131 472.82509089 C10.02834162 470.20012293 11.0142011 468.78818926 12.82523131 466.63759089 C16.10798358 462.40308243 18.22393809 457.81787466 20.38773131 452.95009089 C20.8868402 451.83597834 20.8868402 451.83597834 21.39603209 450.69935846 C25.23080575 441.85780725 27.65419896 433.54968116 27.95023131 423.88759089 C27.98189391 422.98226618 28.01355651 422.07694147 28.04617858 421.14418268 C28.12515483 418.3708362 28.17085532 415.59937982 28.20023131 412.82509089 C28.21102721 411.99171198 28.22182311 411.15833307 28.23294616 410.29970026 C28.32119457 389.40583753 20.98646654 367.0445166 6.20023131 351.82509089 C3.93677171 350.01175109 1.61624678 348.43576786 -0.79976869 346.82509089 C-0.79976869 346.16509089 -0.79976869 345.50509089 -0.79976869 344.82509089 C-1.83037416 344.43643854 -1.83037416 344.43643854 -2.88179994 344.03993464 C-6.18903677 342.66302613 -9.30996403 341.04206643 -12.48726869 339.38759089 C-30.58361445 330.20698264 -53.10399292 329.19903679 -72.79976869 333.82509089 C-76.25248207 334.99486263 -79.60528454 336.27838072 -82.95992494 337.70399714 C-85.59031035 338.74240238 -88.01629157 339.37054141 -90.79976869 339.82509089 C-91.383714 338.11579401 -91.383714 338.11579401 -91.97945619 336.37196589 C-99.89675547 313.74212877 -110.86986274 289.20126061 -127.83492494 271.86805964 C-129.80791667 269.81661893 -131.43892647 267.68693163 -133.11226869 265.38759089 C-137.61912683 259.4657889 -143.24033692 254.72126604 -148.79976869 249.82509089 C-149.87097962 248.84862604 -149.87097962 248.84862604 -150.96383119 247.85243464 C-160.66223266 239.09194442 -171.57268674 232.3979899 -182.79976869 225.82509089 C-184.46780018 224.82736913 -186.13505996 223.8283469 -187.79976869 222.82509089 C-187.2330195 218.5639766 -184.66020714 215.55212069 -182.17476869 212.20009089 C-181.25761457 210.94263377 -180.34095001 209.68481945 -179.42476869 208.42665339 C-178.74994447 207.50481256 -178.74994447 207.50481256 -178.06148744 206.5643487 C-176.39159529 204.26243081 -174.78297446 201.92039098 -173.17476869 199.57509089 C-170.17851253 195.26531011 -166.93972443 191.19443733 -163.59664369 187.14930964 C-161.77907307 184.79832156 -160.2986575 182.38823137 -158.79976869 179.82509089 C-154.41675632 173.21843881 -149.63968021 166.88326361 -144.92476869 160.51259089 C-140.14972048 154.05997552 -135.48034214 147.56149869 -130.94429994 140.93837214 C-125.07142674 132.41254346 -118.97213748 124.04309428 -112.87008119 115.68055964 C-110.45262358 112.34629263 -108.0631555 108.99270569 -105.67476869 105.63759089 C-102.64398904 101.38179552 -99.57311474 97.16450503 -96.41695619 93.00087214 C-93.76190785 89.42874188 -91.19330038 85.79457589 -88.61226869 82.16884089 C-86.02772266 78.53964303 -83.42606712 74.92428935 -80.79976869 71.32509089 C-77.77379958 67.17658485 -74.78006412 63.00642618 -71.79976869 58.82509089 C-66.83830204 51.86564859 -61.8162314 44.95165838 -56.77242494 38.05165339 C-53.68053874 33.81440435 -50.60647908 29.56953391 -47.61226869 25.26259089 C-47.04666734 24.50872095 -46.48106599 23.75485102 -45.8983252 22.97813654 C-44.20589633 20.43529079 -43.00986682 18.16774553 -41.75113893 15.41838312 C-32.72236956 -2.31127215 -17.53263087 -0.57336054 0 0 Z " fill="#037CDB" transform="translate(570.7997686862946,236.17490911483765)"/>
<path d="M0 0 C0.33 0 0.66 0 1 0 C1 34.65 1 69.3 1 105 C63.7 105 126.4 105 191 105 C190.67 105.99 190.34 106.98 190 108 C165.37470124 107.89291011 140.74943397 107.78017594 116.12419224 107.66066074 C104.69112245 107.60530456 93.25804954 107.5518187 81.82495117 107.50268555 C71.86372012 107.45987298 61.90251227 107.4136025 51.94131702 107.36312145 C46.66347187 107.33649685 41.38563139 107.31164328 36.10775948 107.29092598 C31.1461386 107.27139555 26.18456198 107.24726277 21.2229805 107.21950912 C19.39638126 107.21011958 17.56977228 107.2024512 15.74315834 107.19658089 C13.26053163 107.1883519 10.77801328 107.1740846 8.29542542 107.15821838 C7.56294903 107.15724028 6.83047264 107.15626217 6.0758 107.15525442 C1.11412121 107.11412121 1.11412121 107.11412121 0 106 C-0.0953919 104.62123975 -0.12188622 103.23763084 -0.12025452 101.85557556 C-0.12162918 100.96230057 -0.12300385 100.06902557 -0.12442017 99.14868164 C-0.12082489 98.16109863 -0.11722961 97.17351562 -0.11352539 96.15600586 C-0.11367142 95.12198135 -0.11381744 94.08795685 -0.1139679 93.02259827 C-0.11326827 89.58665914 -0.10547358 86.15077347 -0.09765625 82.71484375 C-0.09579225 80.33972707 -0.09436826 77.96461 -0.09336853 75.5894928 C-0.08954197 69.32423856 -0.0797105 63.05900733 -0.06866455 56.79376221 C-0.0584534 50.4061311 -0.05387155 44.01849629 -0.04882812 37.63085938 C-0.03808836 25.08722974 -0.02120127 12.54361609 0 0 Z " fill="#8DC4EE" transform="translate(51,239)"/>
<path d="M0 0 C4.81314973 -0.27768171 8.72314649 0.08569798 13.375 1.375 C27.73424886 5.18816657 42.57187448 5.30343044 57.33276367 5.20581055 C60.19524028 5.18745035 63.05739214 5.18530265 65.91992188 5.18554688 C75.23486883 5.1672245 84.47147899 4.97526519 93.75927734 4.21826172 C99.1702261 3.85383591 104.57990381 3.91773884 110 4 C110 3.34 110 2.68 110 2 C113.3 2 116.6 2 120 2 C88.77595626 17.61202187 32.14121659 9.81869035 0 1 C0 0.67 0 0.34 0 0 Z " fill="#9ECCF1" transform="translate(458,834)"/>
<path d="M0 0 C-3.37046018 1.11563018 -5.74019241 0.86843709 -9.1875 0.125 C-10.06792969 -0.05804688 -10.94835937 -0.24109375 -11.85546875 -0.4296875 C-14 -1 -14 -1 -15 -2 C-17.93607541 -2.5507012 -20.86138418 -3.04459481 -23.8125 -3.5 C-24.61365234 -3.63019531 -25.41480469 -3.76039063 -26.24023438 -3.89453125 C-37.42132956 -5.64738703 -48.51249672 -6.16557263 -59.8203125 -6.13037109 C-61.89330165 -6.12495216 -63.96607938 -6.13038382 -66.0390625 -6.13671875 C-67.37760464 -6.13605877 -68.71614664 -6.13477927 -70.0546875 -6.1328125 C-71.24562012 -6.13168457 -72.43655273 -6.13055664 -73.66357422 -6.12939453 C-76.86556548 -6.00521369 -79.84921044 -5.55594149 -83 -5 C-84.3604727 -4.92816037 -85.72361515 -4.89117717 -87.0859375 -4.90234375 C-88.13974609 -4.90717773 -88.13974609 -4.90717773 -89.21484375 -4.91210938 C-90.28412109 -4.92467773 -90.28412109 -4.92467773 -91.375 -4.9375 C-92.11105469 -4.94201172 -92.84710937 -4.94652344 -93.60546875 -4.95117188 C-95.40368158 -4.96284858 -97.20185197 -4.98077989 -99 -5 C-99 -5.33 -99 -5.66 -99 -6 C-65.55397452 -10.76478648 -32.53010469 -9.8485638 0 0 Z " fill="#AFD6F3" transform="translate(894,242)"/>
<path d="M0 0 C44.33296766 1.91081506 44.33296766 1.91081506 64 6 C64 6.33 64 6.66 64 7 C62.18786143 7.05519204 60.37520201 7.09331732 58.5625 7.125 C57.55316406 7.14820313 56.54382813 7.17140625 55.50390625 7.1953125 C52.71161523 7.0396664 50.60133776 6.70349918 47.9375 6.02734375 C42.79147838 4.85373378 37.7586792 4.5592212 32.49609375 4.3671875 C31.5322023 4.32562531 30.56831085 4.28406311 29.57521057 4.24124146 C26.52956587 4.11163035 23.48360932 3.99313166 20.4375 3.875 C18.35869314 3.78849779 16.27991654 3.70126525 14.20117188 3.61328125 C9.13442509 3.40041202 4.06736819 3.19750003 -1 3 C-0.67 2.01 -0.34 1.02 0 0 Z " fill="#A7D1F2" transform="translate(514,466)"/>
<path d="M0 0 C3.16104707 4.7415706 4.91059547 8.75757628 6.3125 14.25 C6.52543701 15.07612793 6.73837402 15.90225586 6.95776367 16.75341797 C8.67507661 23.52087509 10.27985419 30.3134865 11.8125 37.125 C12.03139893 38.07149414 12.25029785 39.01798828 12.47583008 39.99316406 C13.74827585 45.79629573 14.21260214 51.05928882 14 57 C13.67 57 13.34 57 13 57 C12.88519287 56.33806641 12.77038574 55.67613281 12.65209961 54.99414062 C10.25154214 41.36244547 7.4336423 28.05924538 3.32397461 14.83203125 C1.78705026 9.86837312 0.54374438 5.1727261 0 0 Z " fill="#A6D1F2" transform="translate(920,421)"/>
<path d="M0 0 C0.66 0.33 1.32 0.66 2 1 C-0.18532752 3.35619114 -2.3736697 5.70956287 -4.5625 8.0625 C-5.17158203 8.71927734 -5.78066406 9.37605469 -6.40820312 10.05273438 C-11.8633728 15.9119907 -17.3609024 21.7137582 -23.4375 26.9375 C-24.11683594 27.52402344 -24.79617188 28.11054688 -25.49609375 28.71484375 C-25.99238281 29.13894531 -26.48867188 29.56304687 -27 30 C-27 26.25983417 -26.0658409 25.54723807 -23.625 22.8125 C-22.99851562 22.09707031 -22.37203125 21.38164062 -21.7265625 20.64453125 C-20 19 -20 19 -18 19 C-17.773125 18.443125 -17.54625 17.88625 -17.3125 17.3125 C-15.62449964 14.33840412 -13.53323483 12.27991135 -11 10 C-10.34 10 -9.68 10 -9 10 C-8.67 9.01 -8.34 8.02 -8 7 C-6.15234375 5.17578125 -6.15234375 5.17578125 -3.9375 3.3125 C-3.20402344 2.68988281 -2.47054687 2.06726563 -1.71484375 1.42578125 C-1.14894531 0.95527344 -0.58304688 0.48476563 0 0 Z " fill="#79B9EC" transform="translate(702,279)"/>
<path d="M0 0 C0.90516357 0.00128906 1.81032715 0.00257813 2.74291992 0.00390625 C10.37746193 0.11222643 17.38447282 1.23282174 24.75 3.3125 C21.82081149 4.19715425 19.70193413 4.31813823 16.6875 3.875 C3.81873465 2.41134427 -9.38689754 3.13740418 -22.25 4.3125 C-17.10042858 -0.83707142 -6.88051749 -0.04115834 0 0 Z " fill="#9FCDF1" transform="translate(520.25,564.6875)"/>
<path d="M0 0 C1.54191154 0.14322103 3.08351892 0.28971789 4.625 0.4375 C5.48351562 0.51871094 6.34203125 0.59992187 7.2265625 0.68359375 C10 1 10 1 12.73046875 1.5234375 C17.06313908 2.15496173 21.31445739 2.19077722 25.6875 2.1875 C26.57655029 2.18814453 27.46560059 2.18878906 28.3815918 2.18945312 C34.0098459 2.14421736 39.28271184 1.67859609 44.7890625 0.4453125 C47.91626727 -0.18454853 50.82202043 -0.14124354 54 0 C53.67 0.66 53.34 1.32 53 2 C37.23265953 6.9215976 15.614856 5.76962874 0 1 C0 0.67 0 0.34 0 0 Z " fill="#A5D0F2" transform="translate(495,730)"/>
<path d="M0 0 C0.82064941 0.06566162 1.64129883 0.13132324 2.48681641 0.19897461 C11.78233297 0.90716109 21.05839357 1.29383609 30.375 1.5625 C31.80469545 1.60585855 33.23438303 1.64947715 34.6640625 1.69335938 C38.10929006 1.79855502 41.55460887 1.90028693 45 2 C45 2.33 45 2.66 45 3 C38.86006015 3.32442628 32.71945374 3.62337899 26.57666016 3.88867188 C24.50271703 3.97827942 22.42904221 4.0740859 20.35546875 4.171875 C13.18792077 4.36377722 6.8593214 3.04320212 0 1 C0 0.67 0 0.34 0 0 Z " fill="#8AC2EE" transform="translate(162,731)"/>
<path d="M0 0 C0 0.33 0 0.66 0 1 C-0.95253662 1.03758423 -0.95253662 1.03758423 -1.92431641 1.07592773 C-4.82471542 1.19256789 -7.72484349 1.31498393 -10.625 1.4375 C-11.62402344 1.47681641 -12.62304688 1.51613281 -13.65234375 1.55664062 C-17.54784351 1.7243277 -21.33822201 1.88970367 -25.1875 2.53125 C-28.93497185 3.15582864 -32.5843616 3.10705542 -36.375 3.0625 C-37.11105469 3.05798828 -37.84710937 3.05347656 -38.60546875 3.04882812 C-40.40368158 3.03715142 -42.20185197 3.01922011 -44 3 C-44 2.67 -44 2.34 -44 2 C-29.47402506 -0.80986044 -14.72328002 -0.19277132 0 0 Z " fill="#8CC3EE" transform="translate(839,234)"/>
<path d="M0 0 C0.33 0 0.66 0 1 0 C0.49166939 11.81868679 -1.87639074 23.38877162 -4 35 C-4.33 35 -4.66 35 -5 35 C-4.49412066 27.4650604 -3.84152587 19.94877289 -3.0625 12.4375 C-2.95059326 11.27758545 -2.95059326 11.27758545 -2.83642578 10.09423828 C-2.43563751 6.3625634 -2.03328067 3.20730884 0 0 Z " fill="#8FC5EF" transform="translate(1054,605)"/>
<path d="M0 0 C0.33 0 0.66 0 1 0 C1.26573427 7.97202797 1.26573427 7.97202797 -1 12 C-1.33381884 13.34906953 -1.64411713 14.70406336 -1.9375 16.0625 C-2.66138831 19.17232419 -3.32035846 21.05116979 -6 23 C-5.38334864 17.60607261 -4.12077204 12.71604717 -2.4375 7.5625 C-2.20353516 6.83095703 -1.96957031 6.09941406 -1.72851562 5.34570312 C-1.15732778 3.56219821 -0.57936877 1.78086417 0 0 Z " fill="#9ACAF0" transform="translate(926,634)"/>
<path d="M0 0 C0.66 0.33 1.32 0.66 2 1 C-6.26707889 6.62590823 -13.02619542 8.36122431 -23 8 C-23 7.67 -23 7.34 -23 7 C-21.92621094 6.74605469 -20.85242188 6.49210938 -19.74609375 6.23046875 C-18.30981802 5.8831341 -16.87362444 5.53545967 -15.4375 5.1875 C-14.73302734 5.02185547 -14.02855469 4.85621094 -13.30273438 4.68554688 C-9.73669701 3.81457922 -6.44306276 2.82473231 -3.09765625 1.30078125 C-2.07542969 0.87152344 -1.05320312 0.44226563 0 0 Z " fill="#8CC3EE" transform="translate(864,729)"/>
<path d="M0 0 C8.15484303 0.44651878 16.04264468 1.11150323 24 3 C24 3.33 24 3.66 24 4 C6.78640777 4.52427184 6.78640777 4.52427184 0 0 Z " fill="#98C9F0" transform="translate(554,469)"/>
<path d="M0 0 C0.33 0 0.66 0 1 0 C0.38936897 5.99653391 -0.8000611 11.57951655 -2.4375 17.375 C-2.65470703 18.18066406 -2.87191406 18.98632812 -3.09570312 19.81640625 C-3.41764648 20.97076172 -3.41764648 20.97076172 -3.74609375 22.1484375 C-3.93872803 22.84114746 -4.1313623 23.53385742 -4.32983398 24.24755859 C-5 26 -5 26 -7 28 C-6.7168444 25.91549283 -6.42314331 23.83241633 -6.125 21.75 C-5.96257812 20.58984375 -5.80015625 19.4296875 -5.6328125 18.234375 C-5.07192426 15.36761287 -4.37165611 13.52277144 -3 11 C-2.6056059 9.65699788 -2.250319 8.30181142 -1.9375 6.9375 C-1.3844651 4.55625056 -0.77587452 2.32762357 0 0 Z " fill="#AED5F3" transform="translate(1048,640)"/>
<path d="M0 0 C5.13243482 -0.18663399 9.50254969 0.20136945 14.48046875 1.421875 C19.27408873 2.52180641 24.14463651 3.22774253 29 4 C29 4.33 29 4.66 29 5 C23.05868418 5.14938166 17.53803808 4.63321203 11.6875 3.625 C10.49157227 3.43550781 10.49157227 3.43550781 9.27148438 3.2421875 C8.12196289 3.04882812 8.12196289 3.04882812 6.94921875 2.8515625 C5.91800903 2.67874756 5.91800903 2.67874756 4.8659668 2.50244141 C3 2 3 2 0 0 Z " fill="#A6D1F2" transform="translate(780,839)"/>
<path d="M0 0 C0.99 0.495 0.99 0.495 2 1 C2.40729228 3.32156597 2.74438677 5.6568787 3 8 C3.47308594 7.65066406 3.94617188 7.30132813 4.43359375 6.94140625 C9.60032163 3.38613346 13.74807789 2.15919246 20 2 C17.23219815 3.84520123 14.5734697 5.22777932 11.5625 6.625 C10.14130859 7.29402344 10.14130859 7.29402344 8.69140625 7.9765625 C6 9 6 9 2 9 C1.34 6.03 0.68 3.06 0 0 Z " fill="#95C8F0" transform="translate(478,567)"/>
<path d="M0 0 C0.66 0.33 1.32 0.66 2 1 C-0.03995513 2.89770306 -2.08189835 4.79318945 -4.125 6.6875 C-4.69476562 7.21794922 -5.26453125 7.74839844 -5.8515625 8.29492188 C-9.47648245 11.65209206 -13.17778532 14.86903691 -17 18 C-15.42840852 14.14245727 -12.98922513 11.85637068 -10 9 C-8.21357932 7.18609593 -6.43041818 5.36904661 -4.6484375 3.55078125 C-3 2 -3 2 0 0 Z " fill="#B5D8F4" transform="translate(786,355)"/>
<path d="M0 0 C0.33 0.66 0.66 1.32 1 2 C-0.17127278 4.71818102 -1.40043283 7.31000364 -2.75 9.9375 C-3.1109375 10.66646484 -3.471875 11.39542969 -3.84375 12.14648438 C-5.59602783 15.60977263 -7.12413607 18.33987711 -10 21 C-8.51991304 15.99886406 -6.3681664 11.67084403 -3.875 7.125 C-3.50246094 6.43664062 -3.12992187 5.74828125 -2.74609375 5.0390625 C-1.83500474 3.35705202 -0.91809685 1.67819564 0 0 Z " fill="#9FCDF1" transform="translate(422,728)"/>
<path d="M0 0 C4.64836739 1.56716386 8.25571235 4.09034343 12.1875 6.9375 C13.13012695 7.60168945 13.13012695 7.60168945 14.09179688 8.27929688 C16.98681176 10.35689579 19.00482282 12.00723424 21 15 C16.45295471 12.94580542 12.71330116 9.87070352 8.75390625 6.875 C6.10812541 4.91830731 6.10812541 4.91830731 3.21484375 3.9375 C2.48394531 3.628125 1.75304687 3.31875 1 3 C0.67 2.01 0.34 1.02 0 0 Z " fill="#A0CEF1" transform="translate(652,502)"/>
<path d="M0 0 C1.0505095 3.22499071 0.9076176 5.29802613 0.0625 8.5625 C-0.61572028 11.22597433 -1 13.22420267 -1 16 C1.44496043 17.71711243 1.44496043 17.71711243 4 19 C2 20 2 20 -1.125 19.0625 C-2.548125 18.5365625 -2.548125 18.5365625 -4 18 C-3.41632611 11.69632197 -1.95928381 6.01339937 0 0 Z " fill="#94C7EF" transform="translate(620,412)"/>
<path d="M0 0 C2.66080079 3.26989976 4.45166372 6.69381254 6.25 10.5 C6.79140625 11.6240625 7.3328125 12.748125 7.890625 13.90625 C8.98609883 16.96123336 9.23386263 18.07316306 8 21 C3.93652694 14.41437125 1.2381224 7.67635888 0 0 Z " fill="#A6D1F2" transform="translate(1023,364)"/>
<path d="M0 0 C0.66 0.33 1.32 0.66 2 1 C-2.79077028 5.9255107 -7.77674023 10.53648711 -13 15 C-13 10.64994619 -10.71526819 8.99798918 -7.88671875 5.87109375 C-5.7801038 3.78192488 -3.65173462 2.32586731 -1 1 C-0.67 0.67 -0.34 0.34 0 0 Z " fill="#5EACE8" transform="translate(688,294)"/>
<path d="M0 0 C-1.84258246 1.92863714 -3.34878977 2.92009594 -6.01757812 3.24755859 C-8.43427459 3.29505495 -10.83398212 3.26111304 -13.25 3.1875 C-14.09046875 3.17396484 -14.9309375 3.16042969 -15.796875 3.14648438 C-17.86485938 3.11123464 -19.93251271 3.0574302 -22 3 C-22 2.67 -22 2.34 -22 2 C-19.27123692 1.66304138 -16.54206837 1.33031571 -13.8125 1 C-13.04357422 0.90460937 -12.27464844 0.80921875 -11.48242188 0.7109375 C-7.63071189 0.24807106 -3.88829149 -0.12467468 0 0 Z " fill="#85C0ED" transform="translate(229,730)"/>
<path d="M0 0 C4.86872054 0.59559106 8.59328841 2.72477415 12.8125 5.0625 C13.50537109 5.43955078 14.19824219 5.81660156 14.91210938 6.20507812 C16.61128985 7.13083852 18.30609425 8.06462312 20 9 C17 10 17 10 14.984375 9.109375 C14.24703125 8.66078125 13.5096875 8.2121875 12.75 7.75 C9.87931771 6.0566727 7.09629212 4.54717847 4 3.3125 C1 2 1 2 0 0 Z " fill="#ABD3F3" transform="translate(624,487)"/>
<path d="M0 0 C6.84944119 0.59560358 12.86876215 2.93438108 19 6 C19 6.66 19 7.32 19 8 C12.54646385 5.94235079 6.2638737 3.57616518 0 1 C0 0.67 0 0.34 0 0 Z " fill="#9BCBF0" transform="translate(545,569)"/>
<path d="M0 0 C0.51046875 0.23589844 1.0209375 0.47179687 1.546875 0.71484375 C-0.69619528 1.91734533 -2.9460041 3.10175995 -5.203125 4.27734375 C-6.15445313 4.79071289 -6.15445313 4.79071289 -7.125 5.31445312 C-11.90407938 7.77866593 -11.90407938 7.77866593 -14.90625 7.4296875 C-15.41671875 7.19378906 -15.9271875 6.95789063 -16.453125 6.71484375 C-14.21005472 5.51234217 -11.9602459 4.32792755 -9.703125 3.15234375 C-8.75179687 2.63897461 -8.75179687 2.63897461 -7.78125 2.11523438 C-3.00217062 -0.34897843 -3.00217062 -0.34897843 0 0 Z " fill="#A7D1F2" transform="translate(637.453125,815.28515625)"/>
<path d="M0 0 C0 3 0 3 -2.625 5.69921875 C-3.74254026 6.70367458 -4.86791033 7.69947129 -6 8.6875 C-6.57234375 9.19861328 -7.1446875 9.70972656 -7.734375 10.23632812 C-9.14967213 11.4983014 -10.57400269 12.75013033 -12 14 C-12.66 13.67 -13.32 13.34 -14 13 C-4.58997722 3.40546697 -4.58997722 3.40546697 0 0 Z " fill="#98C9F0" transform="translate(388,777)"/>
<path d="M0 0 C5.65253308 1.37031105 8.5113541 5.67689413 12 10 C11.01 10.33 10.02 10.66 9 11 C7.87278564 9.73113036 6.74831342 8.45982438 5.625 7.1875 C4.99851562 6.47980469 4.37203125 5.77210938 3.7265625 5.04296875 C2 3 2 3 0 0 Z " fill="#9CCCF1" transform="translate(389,525)"/>
<path d="M0 0 C1.75215106 0.93347358 3.50163563 1.8719532 5.25 2.8125 C6.71179688 3.59560547 6.71179688 3.59560547 8.203125 4.39453125 C10.63355412 5.78965188 12.80787699 7.26195961 15 9 C14.67 9.66 14.34 10.32 14 11 C11.66103978 9.55008333 9.32900732 8.09074592 7 6.625 C6.33226562 6.2125 5.66453125 5.8 4.9765625 5.375 C3.28272806 4.30339045 1.63691136 3.15669501 0 2 C0 1.34 0 0.68 0 0 Z " fill="#A5D0F2" transform="translate(366,507)"/>
<path d="M0 0 C4.11583349 3.50608038 6.90567018 8.04628837 9 13 C8.67 13.66 8.34 14.32 8 15 C7.34 14.34 6.68 13.68 6 13 C6 12.01 6 11.02 6 10 C5.34 10 4.68 10 4 10 C1.1605948 6.32547562 0 4.73113419 0 0 Z " fill="#8EC4EF" transform="translate(1006,333)"/>
<path d="M0 0 C1.8984375 0.25390625 1.8984375 0.25390625 4 1 C4.9765625 2.77734375 4.9765625 2.77734375 5.625 4.9375 C6.49351826 7.75252096 6.86379137 8.86379137 9 11 C9.125 13.625 9.125 13.625 9 16 C6.69809241 13.1057887 4.99165159 10.19756615 3.375 6.875 C2.73691406 5.57175781 2.73691406 5.57175781 2.0859375 4.2421875 C1.72757813 3.50226562 1.36921875 2.76234375 1 2 C0.67 1.34 0.34 0.68 0 0 Z " fill="#9DCCF1" transform="translate(584,596)"/>
<path d="M0 0 C5.1470225 3.81689309 9.07898381 7.72844716 11 14 C10.67 14.66 10.34 15.32 10 16 C9.52949219 15.24074219 9.05898438 14.48148438 8.57421875 13.69921875 C7.95160156 12.70535156 7.32898438 11.71148438 6.6875 10.6875 C6.07261719 9.70136719 5.45773437 8.71523438 4.82421875 7.69921875 C3.15555239 5.04600422 3.15555239 5.04600422 1.26953125 3.26953125 C0.85058594 2.85058594 0.43164062 2.43164062 0 2 C0 1.34 0 0.68 0 0 Z " fill="#A5D0F2" transform="translate(408,546)"/>
<path d="M0 0 C3.60234554 5.40351831 6 9.35950694 6 16 C5.34 16 4.68 16 4 16 C3.32586789 14.08594633 2.6609668 12.16863974 2 10.25 C1.62875 9.18265625 1.2575 8.1153125 0.875 7.015625 C0 4 0 4 0 0 Z " fill="#91C6EF" transform="translate(920,421)"/>
<path d="M0 0 C0.33 0.66 0.66 1.32 1 2 C-3.95 8.435 -3.95 8.435 -9 15 C-9 10.98763758 -7.45029655 9.55593108 -5.0625 6.375 C-4.33160156 5.39273437 -3.60070312 4.41046875 -2.84765625 3.3984375 C-1 1 -1 1 0 0 Z " fill="#B0D6F4" transform="translate(569,393)"/>
<path d="M0 0 C5.95507399 0.3916035 10.62819824 1.37124595 16 4 C12.11764181 5.49828872 9.56550712 4.43110582 5.75 3.0625 C4.67234375 2.68222656 3.5946875 2.30195312 2.484375 1.91015625 C1.66453125 1.60980469 0.8446875 1.30945313 0 1 C0 0.67 0 0.34 0 0 Z " fill="#98C9F0" transform="translate(432,827)"/>
<path d="M0 0 C1.27875 0.28875 2.5575 0.5775 3.875 0.875 C8.90171927 1.99382464 13.94685368 3.0083596 19 4 C19 4.33 19 4.66 19 5 C13.25373591 5.24983757 7.47963074 4.87329241 2 3 C1.34 2.01 0.68 1.02 0 0 Z " fill="#A0CEF1" transform="translate(804,732)"/>
<path d="M0 0 C0.33 0.99 0.66 1.98 1 3 C-0.36328125 5.26171875 -0.36328125 5.26171875 -2.3125 7.6875 C-2.94800781 8.49574219 -3.58351563 9.30398438 -4.23828125 10.13671875 C-4.81964844 10.75160156 -5.40101563 11.36648438 -6 12 C-6.66 12 -7.32 12 -8 12 C-6.59023295 8.96147295 -4.91129772 6.4060405 -2.875 3.75 C-2.06675781 2.69039062 -2.06675781 2.69039062 -1.2421875 1.609375 C-0.83226562 1.07828125 -0.42234375 0.5471875 0 0 Z " fill="#8DC4EF" transform="translate(407,754)"/>
<path d="M0 0 C4.83628305 0.99043705 9.47618873 1.95698846 14 4 C10.80588526 5.02328619 8.5784116 4.96256253 5.3125 4.25 C4.13107422 4.01023437 4.13107422 4.01023437 2.92578125 3.765625 C1.97251953 3.38664062 1.97251953 3.38664062 1 3 C0.67 2.01 0.34 1.02 0 0 Z " fill="#79B9EC" transform="translate(602,479)"/>
<path d="M0 0 C4.51478398 0.53115106 7.34666857 2.36620292 11 5 C8 6 8 6 5.95703125 5.0390625 C5.24933594 4.57242188 4.54164063 4.10578125 3.8125 3.625 C3.09707031 3.16351562 2.38164063 2.70203125 1.64453125 2.2265625 C1.10183594 1.82179688 0.55914063 1.41703125 0 1 C0 0.67 0 0.34 0 0 Z " fill="#90C5EF" transform="translate(727,817)"/>
<path d="M0 0 C0.66 0.33 1.32 0.66 2 1 C0.76055724 1.86941494 -0.49207059 2.72005457 -1.75 3.5625 C-2.44609375 4.03816406 -3.1421875 4.51382813 -3.859375 5.00390625 C-6 6 -6 6 -8.265625 5.65234375 C-8.83796875 5.43707031 -9.4103125 5.22179687 -10 5 C-8.38007835 4.13624104 -6.75388139 3.28424146 -5.125 2.4375 C-4.22007812 1.96183594 -3.31515625 1.48617187 -2.3828125 0.99609375 C-1.20332031 0.50302734 -1.20332031 0.50302734 0 0 Z " fill="#92C6EF" transform="translate(747,251)"/>
<path d="M0 0 C0.33 0 0.66 0 1 0 C1.28571429 8.57142857 1.28571429 8.57142857 -1 12 C-1.33 12 -1.66 12 -2 12 C-1.85831863 10.56208484 -1.71148957 9.1246763 -1.5625 7.6875 C-1.48128906 6.88699219 -1.40007813 6.08648438 -1.31640625 5.26171875 C-1 3 -1 3 0 0 Z " fill="#8DC4EE" transform="translate(926,634)"/>
<path d="M0 0 C0.99 0.33 1.98 0.66 3 1 C1.76265016 2.03613033 0.50955363 3.05347802 -0.75 4.0625 C-1.79414062 4.91521484 -1.79414062 4.91521484 -2.859375 5.78515625 C-5 7 -5 7 -7.265625 6.68359375 C-7.83796875 6.45800781 -8.4103125 6.23242188 -9 6 C-7.57140593 4.96674014 -6.13177617 3.94872366 -4.6875 2.9375 C-3.88699219 2.36902344 -3.08648438 1.80054688 -2.26171875 1.21484375 C-1.51535156 0.81394531 -0.76898437 0.41304688 0 0 Z " fill="#98C9F0" transform="translate(734,257)"/>
<path d="M0 0 C0 3.58912412 -0.66436554 4.10857029 -3 6.6875 C-3.556875 7.31011719 -4.11375 7.93273437 -4.6875 8.57421875 C-5.120625 9.04472656 -5.55375 9.51523437 -6 10 C-6.66 9.67 -7.32 9.34 -8 9 C-5.36 6.03 -2.72 3.06 0 0 Z " fill="#A7D1F2" transform="translate(398,766)"/>
<path d="M0 0 C1.258125 -0.020625 2.51625 -0.04125 3.8125 -0.0625 C4.52019531 -0.07410156 5.22789063 -0.08570313 5.95703125 -0.09765625 C8 0 8 0 11 1 C11 1.66 11 2.32 11 3 C6.94393835 2.53199289 3.53411321 2.12046792 0 0 Z " fill="#75B7EB" transform="translate(108,828)"/>
<path d="M0 0 C0.33 1.32 0.66 2.64 1 4 C-0.98 5.32 -2.96 6.64 -5 8 C-3.8141763 4.62496331 -2.72426311 2.35277269 0 0 Z " fill="#7ABAEC" transform="translate(398,436)"/>
<path d="M0 0 C0 4.24645065 -1.81750806 6.38524772 -4 10 C-4.66 10 -5.32 10 -6 10 C-4.6302836 6.00499382 -2.74277578 3.19990508 0 0 Z " fill="#98C9F0" transform="translate(528,255)"/>
</svg>
