<svg version="1.2" xmlns="http://www.w3.org/2000/svg" viewBox="0 0 1000 1000" width="1000" height="1000"><style>.a{fill:#007bdb}</style><path class="a" d="m55 237c106.9 0 213.8 0 324 0 0 26.7 0 53.5 0 81q-1 0-2 0-0.1 0.8-0.2 1.7c-1.4 4.1-4.9 6.5-8.1 9.4-1.8 1.7-1.8 1.7-2.1 3.9-0.8 2.6-1.7 3-4 4.4-3.6 2.4-4.8 4.7-6.6 8.6q-2.5 2.1-5 4-0.5 1.5-1 3-1 0-2 0 0 1 0 2-1 0.5-2 1c-1.1 2-1.1 2-2 4q-1 0-2 0-0.1 0.9-0.3 1.9c-0.3 1-0.3 1-0.7 2.1q-0.9 0.4-1.9 0.9c-2.7 1.4-3.6 3-5.2 5.5-2.6 4.3-2.6 4.3-4.5 6.2-1.7 1.5-1.7 1.5-2.4 4.4-1.7 1.6-3.5 3-5.3 4.4-1.8 1.7-2.7 3.3-3.7 5.6q-1 0-2 0-0.4 0.9-0.8 1.8c-1.2 2.2-1.2 2.2-2.5 3.5-3.1 3.1-5.4 6.8-7.9 10.4q-0.9 1.1-1.8 2.3-1 0-2 0 0 1 0 2-2 2-4 4-1.9 2.8-3.8 5.6-0.6 0.7-1.2 1.4-1.5 0-3 0-0.5 1.5-1 3-1 0-2 0-0.1 1.1-0.3 2.2c-0.8 3.3-2.2 4.5-4.7 6.8q-0.5 1.5-1 3-2 1-4 2-0.5 1-1 2-1 0-2 0 0 1 0 2 1.5 0.5 3 1 0 1 0 2 0.8 0 1.6-0.1c5.7-0.1 11.1 0.3 16.7 1q1 0.1 2.1 0.2c3.8 0.5 7.1 1.4 10.6 2.9q1.4 0.2 2.8 0.5 1.1 0.2 2.2 0.5 0.5 1 1 2 3.2 1 6.4 1.7c11 3.1 19.2 8.8 27.1 16.9 1.6 1.6 1.6 1.6 4.5 3.4q0 1 0 2 1.5 0.5 3 1c2.7 2.4 2.7 2.4 5 5q0 1 0 2 1 0.4 1.9 0.8c2.1 1.2 2.1 1.2 3.1 4.2q1.5 0.5 3 1c2.7 2.4 2.7 2.4 5 5q0 1 0 2 1.5 0 3 0c1.3 2.9 2 4.8 2 8q1.5 0.5 3 1c0.7 2.1 0.7 2.1 1 4q1 0 2 0c0.7 2.6 1.3 5.3 2 8q1.5 0 3 0c1.2 3.9 2 6.9 2 11q1 0 2 0 0.5 2.6 1 5.3 0.3 1.4 0.6 2.9c0.4 2.8 0.4 2.8 0.4 6.8q1 0 2 0 0.2 1.5 0.4 3.1c0.7 5.9 0.7 5.9 3.6 10.9 0.8 5.2 1.1 10.1 1.1 15.3 0 1.1 0 1.1 0 2.1q0 3.4 0 6.7 0 2.4 0 4.7 0 5 0 9.9 0 6.2 0 12.5 0 4.9 0 9.7 0 2.3 0 4.7 0 3.2 0 6.4c0 1.9 0 1.9 0 3.8-0.1 2.8-0.4 5.4-1.1 8.2q-1 0-2 0c0.1 1.3 0.1 1.3 0.1 2.7-0.1 3.3-0.7 5.4-2.1 8.3q-1 0-2 0-0.1 0.9-0.2 1.9-0.1 1.2-0.2 2.5-0.2 1.2-0.3 2.4c-0.3 2.2-0.3 2.2-1.3 4.2q-1 0-2 0-0.2 0.9-0.4 1.9-0.2 1.2-0.5 2.4-0.2 1.2-0.5 2.4c-0.6 2.3-0.6 2.3-2.6 5.3q-1 0-2 0-0.5 2.5-1 5-1 0-2 0-0.2 1.4-0.3 2.9c-0.7 3.1-0.7 3.1-3.7 5.1-1.2 2.1-1.2 2.1-2 4q-1.5 0-3 0-0.1 0.8-0.2 1.6c-1.2 3.6-3.2 5.7-5.8 8.4q-1 0-2 0-0.4 0.8-0.7 1.7c-1.6 2.8-3.5 4.8-5.8 7q-1.2 1.2-2.4 2.5c-2.1 1.8-2.1 1.8-4.1 1.8q-0.5 1.5-1 3-1 0.2-1.9 0.4-1.1 0.3-2.1 0.6-1 2-2 4-1.5 0.5-3 1-0.5 1-1 2c-2.9 1.4-4.8 2-8 2q-0.1 0.9-0.3 1.9c-0.7 2.1-0.7 2.1-2.4 3.4q-1.1 0.5-2.2 1-1 0.5-2.1 1c-2 0.7-2 0.7-5 0.7q0 1 0 2c-3.4 1.5-5.2 2-9 2q0 1.5 0 3c-3.6 1.3-6.1 2-10 2q0 1 0 2c-4.1 1.3-7.7 2.3-12 2q0 1 0 2c-9.4 2.1-9.4 2.1-14 3q0 1 0 2c-7.4 1.3-14.5 2.3-22 2q0 1 0 2c-32.2 3.8-67 5.7-99 0q0-1 0-2c-1.4 0.1-1.4 0.1-2.8 0.1-5.2 0-10.2-1.1-15.2-2.1q0-1 0-2-2 0-4 0 0-1 0-2c-3-0.3-5.9-0.7-9-1q0-1 0-2-0.9-0.1-1.8-0.2-1.2-0.1-2.5-0.2-1.1-0.2-2.3-0.3c-2.2-0.3-4.3-0.7-6.4-1.3q0-1 0-2-1.8-0.2-3.8-0.4c-3.1-0.4-5.5-0.9-8.2-2.6q0-1 0-2c-3.3-0.7-6.6-1.3-10-2q0-1 0-2c-1-0.2-1-0.2-2-0.3-5.1-1-9.4-2-14-4.7q0-1.5 0-3-1-0.2-2.1-0.4-1.3-0.3-2.7-0.5c-1.4-0.3-1.4-0.3-2.7-0.6-2.5-0.5-2.5-0.5-5.5-1.5q0-1 0-2c-3-0.7-5.9-1.3-9-2q0-1 0-2-2-0.5-4-1 0-1.5 0-3-1.6-0.2-3.2-0.4c-3.3-0.5-5.8-1.2-8.8-2.6q0-1 0-2-1 0-2 0c-0.5-3.1-0.5-5.2 1.3-7.9q1.6-1.8 3.3-3.6c1.5-1.5 1.5-1.5 2.4-3.5q1 0 2 0c1-2 1-2 2-4q1 0 2 0 0.4-0.9 0.8-1.8c1.2-2.2 2.4-3.4 4.2-5.2q0.9-1.4 1.8-2.9c2.5-3.5 4.8-5.6 8.2-8.1q1 0 2 0 0.4-1.4 0.7-2.9c1.3-3.1 1.3-3.1 3.4-4.3 0.9-0.4 0.9-0.4 1.9-0.8q0.5-1.5 1-3c1.9-2.2 1.9-2.2 4-4q1 0 2 0 0.5-2.5 1-5 0.9-0.1 1.9-0.2c2.3-0.6 2.3-0.6 3.2-2.7q0.4-1 0.9-2.1 1.5-1.5 3-3 0.6-1.1 1.2-2.3c2.4-3.6 5.3-6.3 8.8-8.7q1 0 2 0 0.3-1.6 0.7-3.3c1.5-4.1 2.5-5.5 6.3-7.7 3.8-0.9 6.1 0.5 9.3 2.4 2.1 1.3 2.1 1.3 3.7 2.6q0 1 0 2 1.4 0.4 2.9 0.9c3.1 1.1 3.1 1.1 4.1 3.1q3 1.6 6 3 0 1 0 2 1.6 0.1 3.2 0.3c4.1 0.8 5.7 2 8.8 4.7 2.2 0.8 2.2 0.8 4 1q0 1 0 2 1.5 0.2 3.1 0.4c3.8 0.6 7.2 1.5 10.9 2.6q0 1 0 2 1.8 0.2 3.6 0.4c4.7 0.6 8.9 2 13.3 3.7 3.7 1.1 7.2 1.5 11.1 1.9q0 1 0 2c17.5 0 35 0 53 0q0-1 0-2c0.8-0.3 0.8-0.3 1.7-0.5 5.3-1.7 10.6-3.5 15.3-6.5q0.5-1 1-2c1.7-0.4 1.7-0.4 3.4-0.9 3.7-0.7 3.7-0.7 5-3.2q0.3-0.9 0.6-1.9 1 0 2 0 0.5-1.5 1-3 1-0.5 2-1 0.5-1.5 1-3 1.2-0.4 2.5-0.8 1.2-0.6 2.5-1.2c0.8-3 0.8-3 1-6q0.5-1 1-2 1 0 2 0c0.7-3.3 1.3-6.6 2-10q1.5-0.5 3-1c0.7-7.6 1.3-15.2 2-23q1 0 2 0 0-1.5 0-3-1 0-2 0-0.5-3.6-1-7.2c-0.1-1-0.1-1-0.3-2-0.5-3.6-0.8-7.1-0.7-10.8q-1.5-0.5-3-1c-1.7-3.3-2-5.2-2-9q-1.5-0.5-3-1-0.2-1-0.4-1.9c-0.4-2.3-0.4-2.3-2.7-3.3-0.9-0.4-0.9-0.4-1.9-0.8q0-1 0-2-0.8-0.3-1.7-0.7c-3-1.7-5-3.8-7.3-6.3q0-1 0-2-0.9-0.2-1.8-0.4-3.1-0.8-6.2-1.6-0.5-2-1-4-1.5 0-3 0 0-1 0-2-1-0.2-2.1-0.4-1.3-0.3-2.7-0.5c-1.4-0.3-1.4-0.3-2.7-0.6-2.5-0.5-2.5-0.5-5.5-1.5q0-1 0-2-1-0.1-2-0.1c-12.2-1.1-12.2-1.1-15-3.9-7.3-1.3-14.6-1.1-22.1-1.1q-1.8 0-3.7 0c-8.7-0.1-8.7-0.1-17.2 1.1q-0.5 1-1 2c-5.2 1.8-10.5 2.2-16 2q0 1 0 2-3.3 0.8-6.6 1.5c-1.8 0.4-1.8 0.4-3.7 0.8-3.6 0.7-7 0.8-10.7 0.7q0 1 0 2-2.4 1-4.8 1.9-1.3 0.6-2.6 1.1c-3.8 1.4-6.7 2-10.7 2q-1.9 0-3.9 0-0.3-18-0.5-36 0-8.3-0.2-16.7-0.1-8-0.2-16.1 0-3.1-0.1-6.1c-0.3-16.1-0.3-16.1 3-21.2 5.3-4.9 5.3-4.9 9-4.9q0.1-1.3 0.2-2.7c1-4.1 2.6-5.6 5.8-8.3q1 0 2 0 0.1-0.9 0.2-1.9c1-2.8 2.2-2.8 4.8-4.1 1.3-2 1.3-2 2-4q1 0 2 0c0.1-1.1 0.1-1.1 0.3-2.3 0.9-3.3 2-4.2 4.6-6.3 2.9-2.2 4.7-4 6.1-7.4q1 0 2 0 0.4-0.9 0.7-1.7c1.5-2.6 3.2-4.3 5.3-6.3q0.5-1 1-2 1 0 2 0 1-2.5 2-5 1 0 2 0 0-1 0-2 1.7-1.7 3.4-3.3c2.8-3 5.3-6.4 7.8-9.7 0.9-1 0.9-1 1.8-2q1 0 2 0 0-1 0-2c1.4-1.6 3-3 4.6-4.4 1.5-1.6 1.5-1.6 2.3-3.7q0.6-0.9 1.1-1.9 2-0.5 4-1 0.5-1.5 1-3 1 0 2 0c0.4-1.4 0.4-1.4 0.7-2.8 1.4-3.3 2.5-5 5.3-7.2q1.5 0 3 0 0.5-1.2 0.9-2.4c1.1-2.6 1.1-2.6 2.1-3.6-53.5-0.3-106.9-0.7-162-1 0-33.7 0-67.3 0-102z"/><path class="a" d="m771.2 237.7q4.3 0.1 8.7 0c12.8 0 25.4 0.9 38.1 2.3q0 1 0 2 1.6-0.1 3.3-0.1c7.6 0 14.2 1.1 20.7 5.1q3.2 1.1 6.4 2.1c4.3 1.2 8.4 2.5 12.6 3.9q0 1 0 2 1.6 0.2 3.3 0.4c3.7 0.6 3.7 0.6 6.7 2.6q0 1 0 2 1.7 0.4 3.4 0.9 1.8 0.5 3.6 1.1 0.5 1 1 2 3.5 1.5 7 3c2 2 2 2 2 5q0.9 0.2 1.7 0.3c2.7 0.8 4.4 2 6.5 3.6 1.1 0.8 1.1 0.8 2.2 1.6q0.8 0.8 1.6 1.5 0 1 0 2 1.5 0 3 0 0.3 0.9 0.7 1.9c1.1 2.3 1.1 2.3 3.6 2.9 3.4 1.5 5.3 3.4 7.8 6.1 1.3 1.3 1.3 1.3 2.6 2.6 5.3 5.8 5.3 5.8 5.3 8.5q1 0 2 0c0.4 1.2 0.4 1.2 0.8 2.4 1 2.9 1 2.9 4.2 4.6q0 1.5 0 3 1.5 0.5 3 1c1.7 3.5 3 6.1 3 10q1 0 2 0c2 3 2 3 2 6q1.5 0.5 3 1 0.5 3 1 6 1 0 2 0 0.8 2.4 1.5 4.8 0.4 1.3 0.8 2.6c0.7 2.6 0.7 2.6 0.7 6.6q1 0 2 0c0.3 3 0.7 5.9 1 9q1.5 0.5 3 1c0.9 2.8 0.9 2.8 1.6 6.3 0.9 4.6 0.9 4.6 2.4 9.2 1.3 3.3 1.7 6.4 2.1 9.9q0.3 1.9 0.5 3.9c0.4 3.3 0.5 6.4 0.4 9.7q1 0 2 0c0 3.6 0 7.3 0 11q1 0 2 0c0 61.1 0 122.1 0 185-34.7 0-69.3 0-105 0-1.1-3.2-1.1-5.5-1.1-8.9 0-1.9 0-1.9 0-3.7q0-2.1 0-4.1 0-2.2 0-4.4 0-5.8 0-11.7 0-6.1 0-12.2 0-11.6 0-23.2 0-13.2 0-26.5 0.1-27.1 0.1-54.3-1 0-2 0-0.5-6-1-12.1c-0.1-1.7-0.1-1.7-0.3-3.4-0.4-5.5-0.8-11-0.7-16.5q-1.5-0.5-3-1c-1.2-4.9-1.5-10-2-15q-1 0-2 0c-1.1-4.3-2-7.6-2-12q-1 0-2 0c-3-5.6-3-5.6-3-9q-1 0-2 0c-1.6-3.2-3.1-6.3-4.4-9.6-1.6-3.4-2.9-4.9-5.6-7.4-5-5.5-5-5.5-5-8q-0.8-0.4-1.7-0.7c-4.4-2.4-7.8-5.8-11.3-9.3q-1-0.5-2-1 0-1 0-2-0.9-0.3-1.8-0.6c-4.6-1.4-9-3-13.2-5.4q-0.5-1-1-2c-2.8-0.9-2.8-0.9-6.1-1.6q-1.6-0.4-3.3-0.8-1.3-0.3-2.6-0.6 0-1 0-2c-7.3 0-14.5 0-22 0q0 1 0 2c-5.4 1-5.4 1-11 2q-0.5 1.5-1 3-3 1.6-6 3-1 1-2 2c-1 0.2-1 0.2-2 0.4-2.4 0.5-2.4 0.5-4 3.6q-1 0-2 0-1 2.5-2 5-1 0-2 0-1 2.5-2 5-1.5 0-3 0c-0.7 2.3-1.3 4.6-2 7q-1 0-2 0-0.2 0.9-0.4 1.9c-0.6 2.1-0.6 2.1-1.6 4.1q-1 0-2 0 0.1 1.3 0.1 2.7c-0.1 3.3-0.7 5.4-2.1 8.3q-1.5 0-3 0c-0.7 3.3-1.3 6.6-2 10q-1 0-2 0c-0.7 4-1.3 7.9-2 12q-1 0-2 0c-0.3 3.3-0.7 6.6-1 10q-1 0-2 0c0.3 0.9 0.3 0.9 0.6 1.9q0.2 1 0.4 2.1-1 1-2 2c-0.6 2.4-0.6 2.4-0.9 5.2q-0.1 1.6-0.3 3.2c-0.2 1.6-0.2 1.6-0.4 3.2q-0.2 1.6-0.4 3.3-0.5 4.1-1 8.1-1 0-2 0c0 0.9 0 0.9 0 1.9 0.1 9.4-0.3 18.7-0.8 28q-0.2 4.2-0.4 8.4-0.1 2.6-0.3 5.3 0 1.2-0.1 2.5c-0.3 5.8-0.3 5.8-1.4 6.9q-0.2 2.8-0.3 5.6-0.1 1.6-0.1 3.4-0.1 1.7-0.2 3.6c0 1.7 0 1.7-0.1 3.6q-0.2 4.4-0.3 8.8c-2.4-0.4-2.4-0.4-5-1-1.8-2.6-2-3.8-2-7q-1 0-2 0c-1.5-3.4-2-5.2-2-9q-1 0-2 0c-0.5-1.5-0.5-1.5-1-3q-1-0.5-2-1 0-1.5 0-3-1 0-2 0c-1-3.5-1-3.5-2-7q-1 0-2 0-1.3-2.2-2.5-4.4c-0.7-1.2-0.7-1.2-1.4-2.4-1.1-2.2-1.1-2.2-1.1-4.2q-1 0-2 0c-3.5-3.9-6.3-8-8-13q-1-0.2-2-0.5-1-0.2-2-0.5-0.5-1.5-1-3c-1.5-1-1.5-1-3-2q-0.5-1.5-1-3c-1.6-1.6-1.6-1.6-3.6-3.1-1.9-1.5-1.9-1.5-3.4-2.9q0-1 0-2-0.9-0.1-1.9-0.2c-2.8-1-2.8-2.2-4.1-4.8-2-1.3-2-1.3-4-2q0-1 0-2-2.5-1-5-2 0-1 0-2-2-0.5-4-1 0-1 0-2-1 0-2 0 0-1 0-2c-2.3-0.7-4.6-1.3-7-2q0-1 0-2-3-1-6-2 0-1 0-2c-0.8-0.2-0.8-0.2-1.7-0.4-2.5-0.7-4.9-1.6-7.3-2.6q0-1 0-2c-3-0.7-5.9-1.3-9-2q0-1 0-2-3-0.5-6-1c-0.2-6.4 0.4-11.9 2-18q1 0 2 0c0.2-1.7 0.2-1.7 0.3-3.4 0.6-4.8 2-9.1 3.7-13.6q0.4-1.2 0.9-2.3 1-2.9 2.1-5.7 1 0 2 0c0.7-3 1.3-5.9 2-9q1 0 2 0 0.2-1.3 0.3-2.6c0.8-3.7 2-6.5 3.8-9.8q0.8-1.6 1.6-3.2 0.7-1.2 1.3-2.4 1 0 2 0c0.7-3 1.3-5.9 2-9q1 0 2 0 0.2-0.9 0.4-1.8c0.5-1.8 1-3.5 1.6-5.2q1 0 2 0 0-1 0-2 1 0 2 0 0.1-1 0.2-2.1c1-3.6 2.6-6 4.8-8.9q1 0 2 0c0.1-1.1 0.1-1.1 0.2-2.2 1.1-3.7 2.9-5.3 5.8-7.8q1.5-0.5 3-1c1.2-3.5 1.2-3.5 2-7 1-0.2 1-0.2 1.9-0.3q1.1-0.4 2.1-0.7 0.5-1.5 1-3 2.5-2.5 5-5 0.8-1.1 1.6-2.2c1.4-1.8 1.4-1.8 4.4-2.8 0.5-1 0.5-1 1-2 4.5-3 4.5-3 7-3q0-1.5 0-3 2.5-0.5 5-1 0-1 0-2c2-1.5 2-1.5 4.7-3.1q1.4-0.8 2.7-1.7c2.6-1.2 2.6-1.2 6.6-1.2 0.5-1.5 0.5-1.5 1-3 3-2 4.3-2 8-2q0-1 0-2c1.1-0.3 1.1-0.3 2.2-0.6q1.5-0.4 3-0.8 1.4-0.4 2.9-0.7c2.9-0.8 2.9-0.8 5.5-2 2.4-0.9 2.4-0.9 6.4-0.9q0-1 0-2 3 0 6 0 0-1 0-2 1.9-0.3 3.9-0.6 2.5-0.4 5-0.8 1.3-0.2 2.6-0.4 1.2-0.2 2.5-0.4 1.1-0.2 2.2-0.4c1.8-0.2 1.8-0.2 2.8-1.4 13.8-2.3 28.2-2.3 42.2-2.3z"/><path class="a" d="m529.6 236.9c1.8 0 1.8 0 3.5 0q5.7 0 11.4 0 3.9 0 7.9 0 9.3 0 18.7 0 10.6 0 21.2 0 21.9 0.1 43.7 0.1-0.5 3-1 6c-1.5 0.5-1.5 0.5-3 1q-0.5 1-1 2-0.5 1-1 2c-1.5 0.5-1.5 0.5-3 1q-0.5 1.5-1 3-1.5 1.5-3 3c-1.3 1.8-2.5 3.7-3.7 5.6q-0.6 0.7-1.3 1.4-1.5 0-3 0-1 2-2 4-1 0-2 0-0.4 1.4-0.8 2.8c-1.1 3-1.7 4.4-4.2 6.2q-1 0-2 0 0 1 0 2c-1.9 2.1-1.9 2.1-4 4q-1 0-2 0-0.3 1.3-0.6 2.7c-1.7 3.9-3.3 4.8-6.8 7.1-2.2 1.7-2.9 3.5-3.6 6.2q-1 0-2 0-1 2-2 4-1 0-2 0 0 1 0 2-1.2 0.3-2.4 0.6c-3 1.2-3 1.2-3.7 4.8q-0.4 1.8-0.9 3.6c-2.4 2.9-4.6 4.4-8 6q-0.5 1-1 2-1 0-2 0-0.1 1.1-0.2 2.2c-1.1 3.7-2.9 5.3-5.8 7.8q-1.5 0.5-3 1-1.6 3-3 6c-1.6 1.9-1.6 1.9-3 3q-1 0-2 0c-1 2-1 2-2 4q-1 0-2 0-0.2 1.3-0.5 2.6c-1.8 4.1-4.1 6-7.6 8.8-2.1 1.6-2.1 1.6-3.9 4.6q-1 0-2 0-0.1 0.9-0.2 1.7c-1 3-2.5 4.2-4.8 6.3q-1.3 1.3-2.6 2.7c-2.4 2.3-2.4 2.3-5.4 3.3q-0.2 1-0.5 2-0.2 1-0.5 2-1.5 0.5-3 1-0.2 0.9-0.4 1.8c-0.9 3.2-3.1 4.2-5.6 6.2q-0.5 1.5-1 3c-2.6 2.8-5.2 5.2-8.2 7.6-2.5 2.1-3.7 3.4-4.8 6.4q-1 0-2 0c-0.2 1-0.2 1-0.3 1.9q-0.4 1.1-0.7 2.1-1.5 0.5-3 1 0 1 0 2-0.9 0.3-1.8 0.6c-2.4 1.3-2.4 1.3-3.4 4.1-2.4 4.4-5.7 7.4-9.8 10.3q-1 0-2 0-0.2 1.2-0.4 2.4c-0.6 2.6-0.6 2.6-1.6 4.6 8.6 0 17.2 0 26 0q0-1 0-2c11.6 0 23.1 0 35 0q0 1 0 2 1.2 0 2.5-0.1c9.6-0.1 18.9 0.8 28.5 2.1q0 1 0 2 0.9 0.1 1.8 0.1c5 0.4 7.9 1.2 12.2 3.9q2.4 0.8 4.9 1.4c4.5 1.3 8.1 3.1 12.1 5.6q0 1 0 2 1.1 0.1 2.3 0.2c3.3 1 3.8 2.1 5.7 4.8 0.9 0.5 0.9 0.5 1.9 0.9 4.1 2.1 6.9 5.8 9.7 9.3 2.3 2.9 2.3 2.9 5.4 4.8q0 1 0 2 1.5 0 3 0c0.4 1.1 0.4 1.1 0.8 2.3 1 2.7 1 2.7 2.7 4.2 1.9 1.9 2.6 3.9 3.5 6.5q1 0 2 0c0.4 0.9 0.4 0.9 0.8 1.9 1.2 2.4 1.2 2.4 4.2 4.1 6 9.6 6 9.6 6 15q2 0.5 4 1 0 1.5 0 3 1 0 2 0c0.7 3 1.3 5.9 2 9q1 0 2 0c0.2 1 0.2 1 0.3 1.9 0.3 1.3 0.3 1.3 0.5 2.5q0.2 1.3 0.5 2.5 0.3 1.1 0.7 2.1 1.5 0.5 3 1c2.9 5 4.7 9.9 6.3 15.5 0.7 2.4 1.5 4.8 2.4 7.2 1.3 3.9 1.6 7.2 1.3 11.3q1.5 0 3 0c2.2 10.8 1 22 1 33-38.9 0-77.9 0-118 0-0.3-2.3-0.7-4.6-1-7q-1-3.5-2-7c-1.1-4.7-2-9.1-2-14q-1 0-2 0 0-1.5 0-3-1 0-2 0 0-2.5 0-5-1 0-2 0-0.4-0.9-0.8-1.8c-1.5-3.5-3-6.8-4.9-10.1-1.3-2.1-1.3-2.1-1.3-5.1-1.1-0.4-1.1-0.4-2.3-0.8-3-1.3-4.1-2.4-5.7-5.2q0-1 0-2-1-0.4-1.9-0.8c-2.1-1.2-2.1-1.2-3.1-4.2q-1.5-0.5-3-1-1.5-0.5-3-1-0.5-1.5-1-3-2.5-0.5-5-1 0-1 0-2-1.4-0.2-2.9-0.4c-12.2-1.7-12.2-1.7-14.1-3.6-4.5-0.3-9.1-0.2-13.6-0.2q-1.9 0-3.9 0c-6.3 0-11.6 0.1-17.5 2.2q-5.3 1.2-10.6 2.2c-3.4 0.7-3.4 0.7-6.6 1.9-3.1 1-5.6 1.1-8.8 0.9-0.3-3.6-0.7-7.3-1-11q-1 0-2 0c-1-5-1-5-2-10q-1 0-2 0-1.5-2.8-2.9-5.7-0.9-1.6-1.7-3.2c-1.2-2.8-2-5.1-2.4-8.1q-1 0-2 0-0.4-1.4-0.7-2.9c-1-3.2-1-3.2-3.4-4.5q-0.9-0.3-1.9-0.6 0-1 0-2-1 0-2 0c-3-4.4-3-4.4-3-7-0.9-0.3-0.9-0.3-1.7-0.7-2.9-1.6-4.4-3.6-6.3-6.3q0-1 0-2c-0.9-0.4-0.9-0.4-1.7-0.8-2.6-1.4-4.4-2.9-6.3-5.2q0-1.5 0-3-1.1-0.1-2.2-0.2c-3.7-1.1-5.3-2.9-7.8-5.8q0-1 0-2-1.1-0.1-2.3-0.3c-3.3-0.9-3.8-2-5.7-4.7q-2-1.1-4-2c-0.5-1-0.5-1-1-2-1.7-0.9-1.7-0.9-3.7-1.8-3-1.4-4.5-2.4-6.9-4.8-2.9-2.9-5.4-3.4-9.4-4.4q-0.5-1-1-2-1.5-0.5-3-1c-0.4-2.6-0.4-2.6 0-6 1.6-2 3.3-3.6 5.1-5.3 2.6-2.3 4.7-5 6.9-7.7q1.6-1.9 3.2-3.8 0.7-0.9 1.5-1.8c1.3-1.4 1.3-1.4 3.3-2.4q0.4-0.9 0.8-1.8c1.6-3 3.7-4.9 6.2-7.2q1 0 2 0 0.4-0.9 0.8-1.8c1.4-2.5 3-4.3 5.2-6.2q1 0 2 0 0.1-0.8 0.2-1.7c1.1-3.3 3.2-5.1 5.7-7.6q1.4-1.3 2.8-2.7c2.3-2 2.3-2 4.3-2q0.4-1.4 0.8-2.9 0.6-1.5 1.2-3.1 1.5-0.5 3-1 1-2 2-4c1.7-1.6 3.6-3 5.4-4.4 1.8-1.5 1.8-1.5 2.1-3.6 0.7-2.6 1.6-3.1 3.8-4.5 4.1-2.7 7-5.1 9.2-9.6 1.5-3 2.6-4.2 5.5-5.9q1 0 2 0c1-2 1-2 2-4q1 0 2 0 0.2-0.9 0.3-1.8c0.8-2.5 1.8-3.8 3.6-5.8q0.7-0.8 1.5-1.7 2.3-2.4 4.6-4.7c1.2-1.3 1.2-1.3 2.5-2.6 2.5-2.4 2.5-2.4 5.5-4.4 1.2-2.6 1.2-2.6 2-5q1 0 2 0 1-2 2-4 1 0 2 0 0.5-1.5 1-3 1-0.4 1.9-0.9c2.3-0.9 2.3-0.9 2.9-3.4 1.4-3.2 3.1-4.7 5.7-7q1.2-1.1 2.4-2.1c2.1-1.6 2.1-1.6 4.1-1.6q0.2-0.9 0.4-1.8c0.5-1.8 1-3.5 1.6-5.2 1-0.5 1-0.5 2-1 1.1-2 1.1-2 2-4q1 0 2 0 0.4-1 0.8-1.9c1.2-2.1 1.2-2.1 4.2-3.1 1.2-2 1.2-2 2-4q1.5 0 3 0 0.5-1.5 1-3c4.6-3.9 9.1-5.6 15-6q0-1 0-2c8.7-2.6 16.6-3.1 25.6-3.1z"/><path fill-rule="evenodd" d="m937.6 633.4q2.2 1.8 4.4 3.6 1.6 1.1 3.2 2.3c10.1 9.7 16.6 23.9 17.1 37.9q0 2.8 0 5.6 0 1.4 0 2.9c-0.3 15.6-5.1 28.7-15.9 40-12.2 11.7-24 14.8-40.5 14.6-10.4-0.4-18.8-4-26.9-10.3q-1.5-1.1-3.1-2.2c-12.2-11.7-16.9-26.7-17.9-43.1-0.1-17.1 4.9-32.4 17-44.8 16.8-15.3 42.9-20 62.6-6.5zm-42.1 31.4c-5.3 7.9-6.6 16.4-5.1 25.7 1.7 6.9 5.2 11.9 10.6 16.5 5.7 2.8 11.2 2.9 17.2 0.9 6.6-4.5 10.7-10.5 12.3-18.4 1.2-8.5 0-17.2-4.8-24.5-3.4-4.2-7-6.6-12.3-7.4-7.6-0.4-13 1.3-17.9 7.2zm-179.5-35.8c60.7 0 60.7 0 75.9 14.3 10.8 11.6 15.3 25.9 15.2 41.6-0.6 15.2-6.1 29-16.7 40-3.8 3.3-7.9 5.8-12.4 8.1-1 0.5-1 0.5-2 1-17.1 7.9-48.2 3-60 3 0-35.6 0-71.3 0-108zm31 31c0 15.5 0 31 0 47 11.3 0.4 11.3 0.4 20.7-4.5 5.7-6.1 7.9-12.6 7.6-20.9-0.8-6.6-2.4-12.8-7.3-17.6-7-4.9-11.9-4-21-4zm-248.3-26.7c9.7 7.3 14 17.1 16.3 28.7q-6.5 0.2-13.1 0.3-2.2 0-4.4 0.1-3.2 0.1-6.4 0.1c-2 0-2 0-3.9 0.1-3.2-0.6-3.2-0.6-5-3q-0.6-1.3-1.2-2.6c-4.2-2.8-8-2.7-13-2-2.6 1.8-2.6 1.8-4 4 0.5 2 0.5 2 2 4 2.3 1.1 4.5 1.9 6.9 2.6q1 0.4 2.1 0.7 3.3 1.1 6.6 2.1c26.7 8.6 26.7 8.6 33.8 21.5 3.4 8.4 2.8 19.6 0 28.2-4.2 9.7-11.7 15.6-21.3 19.7-6.1 2.3-11.6 2.7-18 2.6q-1.4 0-2.8 0c-10 0-18.3-2.5-26.3-8.4q-0.9-0.6-1.8-1.3c-8.5-6.5-13.4-16.6-16.2-26.7q0-1.5 0-3 6.2-0.3 12.5-0.4 2.1-0.1 4.2-0.2c11.8-0.6 11.8-0.6 15.5 2.3 1.5 2.2 1.5 2.2 2.7 4.4 1.9 3.3 4.6 3.9 8.1 4.9 4.4 0.4 8.1 0.4 12-2 1.3-2.3 1.3-2.3 1-5-2.6-3-4.7-4.6-8.5-5.8q-1.4-0.5-2.9-1-3-1-5.9-2c-27.2-8.9-27.2-8.9-33.7-21.1-3.4-8.4-3.5-19-0.4-27.5 4.1-8.8 10.8-15 19.7-18.5 15.3-5.3 31.6-4.7 45.4 4.2zm115.3-4.3c9.9 0 19.8 0 30 0 0 4.8 0.1 9.6 0.1 14.6q0 4.6 0.1 9.2 0 7.3 0.1 14.5 0 5.9 0.1 11.8 0 2.2 0 4.5c0 11.3 0 11.3 4.6 21.4 4 2.8 7.2 3.7 12 3 4.9-2.6 7.8-5.4 9.6-10.7 0.5-3 0.6-5.8 0.6-8.8q0-1 0-2 0.1-3.1 0.1-6.3 0-2.2 0.1-4.5 0.1-5.8 0.1-11.6 0.1-6.9 0.2-13.9 0.2-10.6 0.3-21.2c9.9 0 19.8 0 30 0q0.1 14 0.2 27.9 0 6.5 0 13 0.1 6.3 0.1 12.6 0 2.3 0 4.7c0.2 15.4-1.5 30-12.6 41.6-9.3 8.7-19 11.6-31.6 11.5q-1.3 0-2.7 0c-11.3-0.2-20.8-3.4-29.4-11.1-11.6-12.2-12.3-27.4-12.2-43.3q0-2.4 0-4.9 0-6.5 0.1-12.9 0-6.6 0-13.2 0-13 0.1-25.9zm-94 0c28.4 0 56.8 0 86 0 0 10.6 0 21.1 0 32-9.2 0-18.5 0-28 0 0 25.1 0 50.2 0 76-9.9 0-19.8 0-30 0 0-25.1 0-50.2 0-76-9.2 0-18.5 0-28 0 0-10.6 0-21.1 0-32zm297 0c10.2 0 20.5 0 31 0 0 35.6 0 71.3 0 108-10.2 0-20.5 0-31 0 0-35.6 0-71.3 0-108z"/></svg>