<svg width="24" height="24" viewBox="0 0 24 24" fill="none" xmlns="http://www.w3.org/2000/svg">
  <!-- Robot background -->
  <path opacity="0.32" d="M3 6C3 4.34315 4.34315 3 6 3H18C19.6569 3 21 4.34315 21 6V18C21 19.6569 19.6569 21 18 21H6C4.34315 21 3 19.6569 3 18V6Z" fill="#1877F2"/>
  
  <!-- Robot head -->
  <rect x="5" y="5" width="14" height="12" rx="3" fill="#1877F2"/>
  
  <!-- Robot eyes -->
  <rect x="7" y="8" width="3" height="3" rx="1" fill="white"/>
  <rect x="14" y="8" width="3" height="3" rx="1" fill="white"/>
  
  <!-- Robot eye pupils -->
  <circle cx="8.5" cy="9.5" r="0.5" fill="#1877F2"/>
  <circle cx="15.5" cy="9.5" r="0.5" fill="#1877F2"/>
  
  <!-- Robot mouth -->
  <rect x="9" y="13" width="6" height="2" rx="1" fill="white"/>
  
  <!-- Robot antenna -->
  <line x1="12" y1="5" x2="12" y2="3" stroke="#1877F2" stroke-width="1.5" stroke-linecap="round"/>
  <circle cx="12" cy="2" r="1" fill="#1877F2"/>
  
  <!-- Robot body -->
  <rect x="10" y="17" width="4" height="3" rx="1" fill="#1877F2"/>
  
  <!-- Robot arms -->
  <rect x="3" y="12" width="2" height="4" rx="1" fill="#1877F2"/>
  <rect x="19" y="12" width="2" height="4" rx="1" fill="#1877F2"/>
  
  <!-- Robot hands -->
  <circle cx="4" cy="17" r="1" fill="#1877F2"/>
  <circle cx="20" cy="17" r="1" fill="#1877F2"/>
</svg> 