<svg width="24" height="24" viewBox="0 0 24 24" fill="none" xmlns="http://www.w3.org/2000/svg">
  <rect x="3" y="3" width="6" height="6" fill="currentColor"/>
  <rect x="15" y="3" width="6" height="6" fill="currentColor"/>
  <rect x="3" y="15" width="6" height="6" fill="currentColor"/>
  <rect x="11" y="11" width="2" height="2" fill="currentColor"/>
  <rect x="11" y="13" width="2" height="2" fill="currentColor"/>
  <rect x="13" y="11" width="2" height="2" fill="currentColor"/>
  <rect x="15" y="11" width="2" height="2" fill="currentColor"/>
  <rect x="15" y="13" width="2" height="2" fill="currentColor"/>
  <rect x="17" y="11" width="2" height="2" fill="currentColor"/>
  <rect x="11" y="15" width="2" height="2" fill="currentColor"/>
  <rect x="13" y="15" width="2" height="2" fill="currentColor"/>
  <rect x="15" y="15" width="2" height="2" fill="currentColor"/>
  <rect x="17" y="15" width="2" height="2" fill="currentColor"/>
  <rect x="13" y="13" width="2" height="2" fill="currentColor"/>
  <rect x="17" y="13" width="2" height="2" fill="currentColor"/>
  <rect x="11" y="17" width="2" height="2" fill="currentColor"/>
  <rect x="15" y="17" width="2" height="2" fill="currentColor"/>
  <rect x="17" y="17" width="2" height="2" fill="currentColor"/>
  <circle cx="6" cy="6" r="1" fill="white"/>
  <circle cx="18" cy="6" r="1" fill="white"/>
  <circle cx="6" cy="18" r="1" fill="white"/>
</svg>
